<?xml version="1.0" encoding="UTF-8"?>
<svg id="Layer_1" data-name="Layer 1" xmlns="http://www.w3.org/2000/svg" xmlns:xlink="http://www.w3.org/1999/xlink" viewBox="0 0 681.37 590.12">
  <defs>
    <style>
      .cls-1 {
        fill: url(#radial-gradient);
      }

      .cls-1, .cls-2, .cls-3, .cls-4, .cls-5, .cls-6, .cls-7, .cls-8, .cls-9, .cls-10, .cls-11, .cls-12, .cls-13, .cls-14, .cls-15, .cls-16, .cls-17, .cls-18, .cls-19 {
        fill-rule: evenodd;
      }

      .cls-2 {
        fill: url(#linear-gradient-12);
      }

      .cls-20 {
        fill: #fff;
      }

      .cls-3 {
        fill: url(#radial-gradient-2);
      }

      .cls-4 {
        fill: #684d73;
      }

      .cls-21 {
        opacity: .5;
      }

      .cls-5, .cls-22 {
        fill: #53345f;
      }

      .cls-6 {
        fill: url(#linear-gradient-2);
      }

      .cls-7 {
        fill: url(#linear-gradient-15);
      }

      .cls-8 {
        fill: url(#linear-gradient-9);
      }

      .cls-9 {
        fill: url(#linear-gradient-6);
      }

      .cls-10 {
        fill: url(#linear-gradient-16);
      }

      .cls-11, .cls-23 {
        fill: #cab3da;
      }

      .cls-12 {
        fill: url(#linear-gradient-14);
      }

      .cls-13 {
        fill: url(#linear-gradient-10);
      }

      .cls-14 {
        fill: #d9d9d9;
      }

      .cls-15 {
        fill: url(#linear-gradient-11);
      }

      .cls-24 {
        fill: url(#linear-gradient-5);
      }

      .cls-16 {
        fill: url(#radial-gradient-3);
      }

      .cls-17 {
        fill: url(#radial-gradient-4);
      }

      .cls-25 {
        fill: url(#linear-gradient-3);
      }

      .cls-26 {
        fill: url(#linear-gradient);
      }

      .cls-18 {
        fill: url(#linear-gradient-7);
      }

      .cls-27 {
        fill: url(#linear-gradient-4);
      }

      .cls-28 {
        fill: url(#linear-gradient-8);
      }

      .cls-29 {
        fill: url(#linear-gradient-13);
      }

      .cls-19 {
        fill: #311745;
      }
    </style>
    <radialGradient id="radial-gradient" cx="-346.04" cy="696.37" fx="-346.04" fy="696.37" r="1" gradientTransform="translate(-33006.33 -23157.42) rotate(151.64) scale(52.38 -52.38)" gradientUnits="userSpaceOnUse">
      <stop offset="0" stop-color="#f4dbee"/>
      <stop offset="1" stop-color="#d1bde5"/>
    </radialGradient>
    <linearGradient id="linear-gradient" x1="292.08" y1="275.27" x2="250.62" y2="269.32" gradientTransform="translate(0 616) scale(1 -1)" gradientUnits="userSpaceOnUse">
      <stop offset="0" stop-color="#aa367c"/>
      <stop offset="1" stop-color="#4a2fbd"/>
    </linearGradient>
    <linearGradient id="linear-gradient-2" x1="329.03" y1="299.33" x2="274.36" y2="269.82" gradientTransform="translate(0 616) scale(1 -1)" gradientUnits="userSpaceOnUse">
      <stop offset="0" stop-color="#9579a7"/>
      <stop offset="1" stop-color="#fff"/>
    </linearGradient>
    <radialGradient id="radial-gradient-2" cx="-345.73" cy="696.1" fx="-345.73" fy="696.1" r="1" gradientTransform="translate(-35113.77 -24531.17) rotate(151.64) scale(55.84 -55.84)" gradientUnits="userSpaceOnUse">
      <stop offset="0" stop-color="#f4f1ff"/>
      <stop offset="1" stop-color="#d1bde5"/>
    </radialGradient>
    <radialGradient id="radial-gradient-3" cx="-345.62" cy="696" fx="-345.62" fy="696" r="1" gradientTransform="translate(-35861.17 -25330.31) rotate(151.64) scale(57.18 -57.18)" gradientUnits="userSpaceOnUse">
      <stop offset="0" stop-color="#f4dbee"/>
      <stop offset="1" stop-color="#d1bde5"/>
    </radialGradient>
    <radialGradient id="radial-gradient-4" cx="-344.92" cy="695.4" fx="-344.92" fy="695.4" r="1" gradientTransform="translate(-42210.68 -29724.4) rotate(151.64) scale(67.33 -67.33)" gradientUnits="userSpaceOnUse">
      <stop offset="0" stop-color="#f4f1ff"/>
      <stop offset="1" stop-color="#d1bde5"/>
    </radialGradient>
    <linearGradient id="linear-gradient-3" x1="525.88" y1="153.8" x2="447.95" y2="142.44" gradientTransform="translate(0 616) scale(1 -1)" gradientUnits="userSpaceOnUse">
      <stop offset="0" stop-color="#aa367c"/>
      <stop offset="1" stop-color="#4a2fbd"/>
    </linearGradient>
    <linearGradient id="linear-gradient-4" x1="407.77" y1="104.17" x2="335.07" y2="93.47" gradientTransform="translate(0 616) scale(1 -1)" gradientUnits="userSpaceOnUse">
      <stop offset="0" stop-color="#aa367c"/>
      <stop offset="1" stop-color="#4a2fbd"/>
    </linearGradient>
    <linearGradient id="linear-gradient-5" x1="441.89" y1="297.34" x2="396.36" y2="290.81" gradientTransform="translate(0 616) scale(1 -1)" gradientUnits="userSpaceOnUse">
      <stop offset="0" stop-color="#aa367c"/>
      <stop offset="1" stop-color="#4a2fbd"/>
    </linearGradient>
    <linearGradient id="linear-gradient-6" x1="508.85" y1="261.92" x2="335.01" y2="168.09" gradientTransform="translate(0 616) scale(1 -1)" gradientUnits="userSpaceOnUse">
      <stop offset="0" stop-color="#fff"/>
      <stop offset="1" stop-color="#9579a7"/>
    </linearGradient>
    <linearGradient id="linear-gradient-7" x1="351.44" y1="336.84" x2="256.53" y2="512.67" gradientTransform="translate(0 616) scale(1 -1)" gradientUnits="userSpaceOnUse">
      <stop offset="0" stop-color="#d1bde5"/>
      <stop offset="1" stop-color="#fff"/>
    </linearGradient>
    <linearGradient id="linear-gradient-8" x1="363.64" y1="437.12" x2="186.25" y2="411.39" gradientTransform="translate(0 616) scale(1 -1)" gradientUnits="userSpaceOnUse">
      <stop offset="0" stop-color="#aa367c"/>
      <stop offset="1" stop-color="#4a2fbd"/>
    </linearGradient>
    <linearGradient id="linear-gradient-9" x1="417.9" y1="439.77" x2="238.65" y2="343.03" gradientTransform="translate(0 616) scale(1 -1)" gradientUnits="userSpaceOnUse">
      <stop offset="0" stop-color="#fff"/>
      <stop offset="1" stop-color="#9579a7"/>
    </linearGradient>
    <linearGradient id="linear-gradient-10" x1="398.32" y1="373.95" x2="347.99" y2="467.21" gradientTransform="translate(0 616) scale(1 -1)" gradientUnits="userSpaceOnUse">
      <stop offset="0" stop-color="#d1bde5"/>
      <stop offset="1" stop-color="#f4dbee"/>
    </linearGradient>
    <linearGradient id="linear-gradient-11" x1="411" y1="73.22" x2="370.1" y2="51.14" gradientTransform="translate(0 616) scale(1 -1)" gradientUnits="userSpaceOnUse">
      <stop offset="0" stop-color="#fff"/>
      <stop offset="1" stop-color="#9579a7"/>
    </linearGradient>
    <linearGradient id="linear-gradient-12" x1="535.66" y1="126.15" x2="497.15" y2="105.36" gradientTransform="translate(0 616) scale(1 -1)" gradientUnits="userSpaceOnUse">
      <stop offset="0" stop-color="#fff"/>
      <stop offset="1" stop-color="#9579a7"/>
    </linearGradient>
    <linearGradient id="linear-gradient-13" x1="358.32" y1="408.25" x2="191.23" y2="383.77" gradientTransform="translate(0 616) scale(1 -1)" gradientUnits="userSpaceOnUse">
      <stop offset="0" stop-color="#5a30b2"/>
      <stop offset="1" stop-color="#aa367c"/>
      <stop offset="1" stop-color="#4a2fbd"/>
    </linearGradient>
    <linearGradient id="linear-gradient-14" x1="508.65" y1="330.09" x2="482.09" y2="315.76" gradientTransform="translate(0 616) scale(1 -1)" gradientUnits="userSpaceOnUse">
      <stop offset="0" stop-color="#fff"/>
      <stop offset="1" stop-color="#9579a7"/>
    </linearGradient>
    <linearGradient id="linear-gradient-15" x1="213.63" y1="286.34" x2="197.49" y2="277.63" gradientTransform="translate(0 616) scale(1 -1)" gradientUnits="userSpaceOnUse">
      <stop offset="0" stop-color="#9579a7"/>
      <stop offset="1" stop-color="#fff"/>
    </linearGradient>
    <linearGradient id="linear-gradient-16" x1="371.3" y1="289.42" x2="349.57" y2="286.26" gradientTransform="translate(0 616) scale(1 -1)" gradientUnits="userSpaceOnUse">
      <stop offset="0" stop-color="#aa367c"/>
      <stop offset="1" stop-color="#4a2fbd"/>
    </linearGradient>
  </defs>
  <path class="cls-23" d="M582.01,432.57c10.75-1.52,21.58-6.12,32.47-15.7,24.27-21.37,19.64-57.97,1.43-79.76-18.61-22.2-56.39-35.35-101.62,.71-76.61,61.07-108.49,38.82-108.8,38.57l-5.56,7.19c1.48,1.17,37.01,27.53,120.09-38.66,40.08-31.89,72.24-21.97,88.98-1.98,15.47,18.51,19.69,49.38-.46,67.11-25.01,22-49.92,13.55-76.3,4.62-10.61-3.6-21.58-7.32-32.64-9-39.48-5.99-64.1,17.56-65.14,18.56l6.36,6.5c7.86-6.65,17.05-11.52,26.96-14.29,9.91-2.77,20.3-3.38,30.46-1.77,10.25,1.54,20.85,5.13,31.09,8.61,17.18,5.86,34.83,11.83,52.69,9.31Z"/>
  <path class="cls-11" d="M525.55,517.35s22.63,20.25,39.77,10.36l-39.77-10.36Z"/>
  <path class="cls-1" d="M212.76,349.47c8.98,16.67,52.07,32.41,73.98,26.05,.98-.28,1.94-.61,2.88-1,12.93-5.47,20.84-20.74,24.73-30.66,1.19-2.93,2.2-5.93,3.03-8.98l-5.62-44.74s-.57,.19-1.53,.59c-5.74,2.34-11.18,5.35-16.21,8.97-8.33,6.2-38.38,16.84-54.91,15.53-16.54-1.32-23.01-5.6-26.78-4.49-3.78,1.11-5.9,8.04-5.9,8.04,0,0-3.14,13.12,6.33,30.69Z"/>
  <path class="cls-4" d="M206.43,318.78s6.41-3.46,9.71,.36c3.3,3.82,10.49,28.87-3.37,30.31-13.86,1.44-6.33-30.67-6.33-30.67h-.01Z"/>
  <path class="cls-5" d="M210.15,319.81s4.09,13.4-2.1,26.1c0,0-9.08-15.92,2.1-26.1Z"/>
  <path class="cls-14" d="M177.83,323.26c5.03,7.27,12.06,12.92,20.24,16.27,3.58,1.59,7.34,2.76,11.2,3.48,2.65-5.55,3.32-11.84,1.89-17.82,0,0-.94-1.58-2.49-3.86-3.47-5.03-9.63-13.51-14.46-16.04l.57,6.36s-6.38-8.22-20.12-5.68c.01,0-6.49,2.68,3.16,17.28Z"/>
  <path class="cls-26" d="M256.83,313.63s9.58,10.24,13.83,33.92c4.25,23.68-11.77,27.57-11.77,27.57,0,0,10.08,2.42,17.04,1.85,0,0,37.24-15.01-4.46-67.2l-14.63,3.86Z"/>
  <path class="cls-6" d="M314.35,343.86c1.06,3.41,2.36,6.92,3.74,10.61l10.22-26.28-13.95-38.72-4.03,.8c-.05,.15-.07,.29-.12,.44-5.74,2.34-11.18,5.35-16.21,8.97,0,0,34.12,25.2-4.39,74.73,12.94-5.38,20.85-20.64,24.75-30.56Z"/>
  <path class="cls-19" d="M364.59,554.76s5.75-15.59,43.54-17.2c0,.04-12.02,20.33-43.54,17.2Z"/>
  <path class="cls-19" d="M528.78,477.2s-23.97,3.39-32.48,32.19c0,0,11.01,2.83,22.94-6.66,11.93-9.48,9.53-25.54,9.53-25.54Z"/>
  <path class="cls-3" d="M392.3,559.85l16.42-8.87s-.9-4.44-2.09-11.54c-3.04-17.95-7.93-52.77-4.92-75.2l-68.9-29.79s.32,4.3,.9,11.08c1.8,19.67,.22,60.03,6.66,75.04,8.68,20.12,51.92,39.28,51.92,39.28Z"/>
  <path class="cls-11" d="M332.8,434.43c18.33,16.77,41.4,27.45,66.04,30.6l2.87-.78,15.33-4.2s-.01-.1-.02-.15l-.04-.31c-.02-.08-.03-.16-.04-.24-.02-.1-.04-.21-.04-.31-.85-6.97-4.88-50.92,21.57-93.82-3.8-3.33-7.38-6.91-10.71-10.72-.66-.75-1.36-1.54-2.12-2.38-3.41-3.84-7.55-8.67-12.44-14.8-10.7-13.22-28.56-34.68-40.86-49.41-3.69-4.43-6.89-8.26-9.26-11.11-.88-1.06-1.66-2-2.31-2.74l-1.96-2.36s-29.69,19.92-48.01,16.65c0,0-.2,.62-.5,1.84-.05,.16-.07,.3-.12,.44-1.47,6.36-4.51,25.48,4.11,53.11,1.08,3.41,2.36,6.92,3.75,10.59,.52,1.31,1.03,2.61,1.6,3.91,.07,22.26,3.29,44.39,9.57,65.75,1.11,3.58,2.29,7.02,3.57,10.44Z"/>
  <path class="cls-16" d="M375.72,315.91c.74,.96,1.54,1.92,2.36,2.92,12.89,15.53,31.46,29.9,49.72,35.74,11.2,3.55,22.24,3.86,31.79-.72,21.33-10.28,28.2-30.11,29.79-35.87,.04-.18,.08-.37,.14-.55,.03-.16,.06-.32,.11-.47,.1-.39,.14-.59,.14-.59,0,0,6.52-5.96,2.53-13.79-3.99-7.82-13.13-18.49-13.13-18.49l-4.4,.43s-3.49-5.15-9.49-4.18c-6,.97-18.11,8.08-37.13,6.64-16.73-1.25-42.47-7.61-51.19-10.69-.92-.28-1.8-.64-2.65-1.09-2.96-1.55-6.18-2.53-9.5-2.89l-2.39,1.14-1.58,.75-4.85,2.31s-1.35,12.98,19.72,39.39Z"/>
  <path class="cls-17" d="M417.04,460.05s39.86,25.98,49.55,33.17c9.69,7.18,36.46,16.1,49.6,16.08,.32,.01,.64,0,.96-.02,12.35-.45,16.25-9.2,16.25-9.2,0,0-.67-2.42-1.75-6.22-1.45-5.07-3.61-12.56-5.96-20.01-3.09-9.91-6.48-19.78-8.76-23.6-3.88-6.53-44.85-49.78-65.98-71.93-7.48-7.81-12.46-13-12.46-13-30.76,30.96-22.91,86.03-21.58,93.81,0,.1,.02,.21,.04,.31,0,.08,.02,.16,.03,.24l.04,.27s.01,.07,.01,.11Z"/>
  <path class="cls-5" d="M353.27,277.64s-14.4,14.46-20.64,17.35c-6.24,2.9-21.77-6.51-21.77-6.51,0,0,15.64-.16,42.41-10.85Z"/>
  <path class="cls-5" d="M364.8,272.31s7.16,52.65,53.53,79.46c0,0-41.12-17.54-65.05-74.13l11.53-5.33Z"/>
  <path class="cls-5" d="M314.35,289.52s-1.79,40.61,5.35,68.88c0,0-15.66-30.21-13.27-65.95l4.43-3.97,3.49,1.04Z"/>
  <path class="cls-5" d="M446.15,373.25s-21.43,20.58-22.64,91l-6.43-4.21s-12.95-66.41,21.43-94.76l7.64,7.97Z"/>
  <path class="cls-5" d="M329.3,424.2s36.49,38.3,72.4,40.03l-.47,4.37s-36.03,3.2-67.77-26.28l-4.15-18.12Z"/>
  <path class="cls-4" d="M489.78,316.35s6.52-5.96,2.53-13.78c-3.99-7.82-13.13-18.49-13.13-18.49l-4.4,.43s-11.67,22.61,14.99,31.85Z"/>
  <path class="cls-5" d="M490.82,308.7s-16.28-11.49-11.69-24.56c.05-.06,16.32,18.31,11.69,24.56Z"/>
  <path class="cls-14" d="M479.24,293.3s-2.49-11.82,6.12-19.05l2.65,4.9s9.73-14.76,23.28-11c0,0,5.06,23.44-22.67,38.86-4.58-3.39-7.88-8.22-9.38-13.71Z"/>
  <path class="cls-25" d="M504.77,435.72s8,15.29-9.71,34.35c-17.71,19.06-37.24,16.99-37.24,16.99,0,0,10.73,8.22,17.81,11.28,7.08,3.05,38.16-14.67,46-36.94,0,0-2.47-8.69-5.79-12.74-3.32-4.05-11.08-12.93-11.08-12.93Z"/>
  <path class="cls-27" d="M401.07,491.7s-11.02,16.38-26.58,26.71c-9.3,6.16-20.54,8.68-31.57,7.09,0,0,7.43,9.92,15.47,14.71,0,0,20.02-4.21,29.45-12.21,9.44-8,14.42-20.67,14.42-20.67l-1.19-15.63Z"/>
  <path class="cls-24" d="M423.2,286.52s-22.24,41.45,21.74,70.7c-5.41,.22-10.82-.57-15.95-2.32-12.04-3.82-48.64-49.69-19.2-70.63l13.41,2.26Z"/>
  <path class="cls-22" d="M401.45,464.55l.5-.57c-.3-.26-29.79-26.61-42.02-49.25-10.59-19.64-12.88-30.85-16.04-46.38-1.19-5.88-2.55-12.53-4.54-20.39-4.28-16.9-7.31-34.09-9.07-51.44l-.76,.11c1.78,17.38,4.82,34.61,9.11,51.56,1.98,7.83,3.33,14.49,4.54,20.34,3.17,15.6,5.47,26.82,16.12,46.59,12.29,22.7,41.81,49.14,42.18,49.42Z"/>
  <path class="cls-9" d="M405.3,540.17l1.28-.72c-3.04-17.95-7.93-52.77-4.92-75.2l15.38-4.2s39.86,25.98,49.57,33.16c9.71,7.18,36.44,16.1,49.59,16.08,.32,0,.64,0,.96-.04l14.49-15.48c-1.43-5.05-3.61-12.54-5.95-19.99l-1.57-.18s-13.97,22.68-34.02,24.34c-20.05,1.67-60.25-39.89-61.02-48.51-2.89-32.24,12.8-58.79,21.86-71.15l-12.47-13.01c-3.8-3.33-7.38-6.91-10.71-10.72,11.2,3.55,22.24,3.86,31.8-.74,21.31-10.27,28.19-30.1,29.78-35.87-1.89,6.13-10.8,28.79-43.62,35.77-6.7,1.38-13.65,.82-20.04-1.61-28.5-10.16-49.88-50.96-52.51-59.98-.4-1.36-.67-2.76-.78-4.17-.62-8.07,4.54-11.68,4.54-11.68-.9-.28-1.78-.64-2.62-1.06-2.96-1.55-6.18-2.53-9.5-2.89l-2.39,1.14c.19,.87,.42,2.07,.73,3.49,2.93,13.37,7.14,26.43,12.58,38.99,4.19,9.88,9.71,19.14,16.4,27.53,22.43,27.08,29.03,31.16,29.03,31.16,0,0-6.53,51.34-18.21,65.53-11.68,14.18-51.9,.45-62.76-7.77-5.17-3.86-8.64-6.54-10.91-8.25,1.07,3.44,2.23,6.87,3.53,10.29,0,0,.32,4.3,.91,11.08,10.89,8.71,47.9,39.02,56.04,52.28,9.55,15.63,15.55,42.4,15.55,42.4Z"/>
  <g class="cls-21">
    <path class="cls-5" d="M364.8,272.3s-2.71,29.62-26.6,50.6c-23.9,20.98-39.05-26.65-39.05-26.65l7.29-3.79,3.93-2.13,54.43-18.03Z"/>
  </g>
  <path class="cls-18" d="M224.48,267.93c.24,.3,.46,.58,.72,.86,3.3,3.82,9.01,7.73,16.24,11.13,0,0,.43,.21,1.25,.54,15.83,6.92,33,10.22,50.27,9.65,30.01-1.14,72.94-11.7,97.39-36.46,24.45-24.75,25.04-84.95,14.16-102.12-3.73-5.98-7.83-11.73-12.27-17.21-14.4-17.71-37.89-38.38-71.77-40.29-25.61-1.45-58.18,7.39-82.07,19.22-6.8,3.28-13.27,7.2-19.33,11.71-3.24,2.41-6.2,5.17-8.82,8.24l-.91,1.19c-.6,.78-1.15,1.6-1.64,2.45-25.19,44.21,.73,110.37,16.79,131.08Z"/>
  <path class="cls-28" d="M227.89,262.95c.23,.27,.42,.55,.66,.8,7.41,5.44,32.11,18.81,68.07,4.6,44.22-17.46,44.36-57.82,44.36-57.82l8.72-2.83c-1.08-5.78-1.81-11.13-2.27-16.06-2.64-27.62,3-41.97,2.13-45.84-1.01-4.62-15.84-29.25-50.72-35.14-23.11-3.89-43.66,1.38-57.92,7.26-6.38,3.07-12.45,6.75-18.12,10.98-3.05,2.25-5.83,4.84-8.27,7.73l-.85,1.11c-.57,.73-1.08,1.5-1.54,2.31-9.82,17.22-11.35,37.95-8.73,57.71,3.68,27.84,15.66,53.79,24.47,65.17Z"/>
  <path class="cls-8" d="M242.69,280.46c15.83,6.92,33,10.22,50.27,9.65,30.01-1.14,72.94-11.7,97.39-36.46,24.45-24.75,25.04-84.95,14.16-102.12-3.73-5.98-7.83-11.73-12.27-17.21-4.61-3.29-9.8-4.82-15.63-2.73-21.39,7.69-14.77,80.25-14.77,80.25l-10.9,.96s.23,42.25-41,63.44c-36.01,18.54-61.49,6.52-67.24,4.22Z"/>
  <path class="cls-13" d="M400.45,238.95c-9.05,11.12-28.87,10.48-37.22-25.79-8.35-36.27,6.3-75.4,6.3-75.4-29.83,8.36-15.17,71.32-15.17,71.32,1.03,2.61,2.02,5.03,3.05,7.28l.1,.25c21.39,47.86,41.24,24.48,42.94,22.35Z"/>
  <path class="cls-5" d="M406.92,156.54c-5.21-11.98-14.43-19.17-21.54-17.77s-20.88,36.55-10.77,72.12c10.11,35.56,31.2,20.08,33.53,5.55l1.47-7.93s-13.78,25.78-26.58,5.14c-14.62-23.53,.83-59.24,12.34-56.71,11.51,2.54,15.66,22.92,15.66,22.92,0,0-.64-15.36-4.11-23.32Z"/>
  <path class="cls-14" d="M413.51,554.5l-3.36-4.26-1.94-12.65s-24.37,16.39-43.55,17.2c7.82,4.98,16.84,7.74,26.11,7.99,0,0-13.76,9.37-10.47,25.13l33.23-33.42Z"/>
  <path class="cls-14" d="M496.39,509.34l26.59,3.3,2.58,4.78s17.71,14.3,39.77,10.35c0,0-6.5-18.05-29.18-23.98l-7.35-26.56c-1.23,7.84-4.46,15.23-9.38,21.46-7.81,9.81-21.79,10.59-23.03,10.64Z"/>
  <path class="cls-11" d="M413.51,554.5l2.93,1.82-34.35,33.8-1.86-2.23,33.28-33.38Z"/>
  <path class="cls-15" d="M364.59,554.77c7.82,4.98,16.84,7.74,26.11,7.99,0,0,15.53-7.26,22.81-8.25l-3.36-4.26-1.94-12.65s-24.42,16.39-43.61,17.17Z"/>
  <path class="cls-2" d="M496.39,509.34l26.59,3.3c5.03-1.86,9.55-4.89,13.17-8.85l-7.35-26.56c-1.23,7.84-4.46,15.23-9.38,21.46-7.81,9.81-21.79,10.59-23.03,10.64Z"/>
  <path class="cls-20" d="M333.91,147.97s-1.91-10.77-3.56-13.83c-5.22-3.05-10.99-5.05-16.98-5.88l-3.25,20.14s18.48-1.17,23.78-.43Z"/>
  <path class="cls-29" d="M227.97,263.59c.22,.27,.42,.55,.67,.8,7.39,5.44,32.06,18.79,67.99,4.6,44.17-17.46,44.26-57.75,44.26-57.75l8.69-2.83c-1.07-5.78-1.79-11.12-2.27-16.04,0,0-86.1-61.21-143.78,6.06,3.67,27.86,15.63,53.79,24.44,65.16Z"/>
  <path class="cls-20" d="M334.39,219.04s-.85,9.59-4.17,15.77l-5.82-2.16s2.74-8.94,3.71-14.24l6.29,.63Z"/>
  <path class="cls-12" d="M508.77,286.14s-7.56,11.14-16.78,12.95c-9.22,1.8-12.98-7.45-12.98-7.45,0,0,.05,7.99,9.56,15.38,0,0,15.76-8.39,20.2-20.88Z"/>
  <path class="cls-7" d="M198.08,339.53c3.59,1.59,7.34,2.76,11.2,3.48,2.65-5.55,3.31-11.84,1.89-17.82,0,0-.94-1.58-2.49-3.86,0,0,1.82,9.94-10.6,18.2Z"/>
  <path class="cls-4" d="M347.92,335.15c.93,1.72,2.18,3.24,3.7,4.48,1.52,1.23,3.26,2.16,5.14,2.71,1.87,.56,3.84,.74,5.78,.54,1.94-.2,3.83-.79,5.55-1.72,1.72-.92,3.24-2.18,4.48-3.7,1.23-1.52,2.16-3.26,2.72-5.14,.56-1.87,.74-3.84,.54-5.79-.2-1.95-.79-3.83-1.73-5.55-.93-1.72-2.18-3.24-3.7-4.48-1.52-1.23-3.26-2.16-5.14-2.71-1.87-.56-3.84-.74-5.78-.54-1.95,.2-3.83,.79-5.55,1.72-1.72,.93-3.24,2.18-4.48,3.7-1.23,1.52-2.16,3.26-2.71,5.14-.56,1.87-.74,3.84-.54,5.78,.2,1.94,.79,3.83,1.72,5.55Z"/>
  <path class="cls-10" d="M352.78,332.53c1.18,2.17,3.17,3.78,5.54,4.48,2.37,.7,4.92,.43,7.09-.75,1.08-.58,2.02-1.37,2.79-2.32,.77-.95,1.35-2.04,1.69-3.22,.35-1.17,.46-2.4,.33-3.62-.13-1.22-.5-2.4-1.08-3.47-1.18-2.17-3.17-3.78-5.54-4.48-2.37-.7-4.92-.43-7.09,.75-2.17,1.18-3.78,3.17-4.48,5.54-.7,2.37-.43,4.92,.75,7.09Z"/>
  <path class="cls-4" d="M403.73,283.25s-11.54,17.42-24.24-6.1c0,0,17.53,4.64,24.24,6.1Z"/>
  <path class="cls-22" d="M371.19,487.07c10.04-1.49,19.97-3.67,29.71-6.52l-.23-.73c-.49,.15-48.9,14.64-65.21,3.55l-.42,.62c7.86,5.4,22.62,4.99,36.15,3.08Z"/>
  <path class="cls-22" d="M437.51,474.83l.76-.11c-1.82-8.85-2.26-17.94-1.3-26.93,2.56-22.94,27.81-54.44,28.06-54.75l-.59-.48c-.24,.31-25.63,31.98-28.22,55.15-.96,9.05-.52,18.2,1.3,27.12Z"/>
  <path class="cls-22" d="M477.8,339.56l.6-.47c-31.84-40.53-13.04-58.27-12.85-58.44l-.49-.57c-.21,.18-5.04,4.62-5.91,14.22-.85,8.81,1.81,23.83,18.66,45.25Z"/>
  <path class="cls-22" d="M241.46,369.91c14.53-29.12-17.6-57.15-17.91-57.42l-.5,.57c.32,.29,32.01,27.94,17.74,56.5l.67,.35Z"/>
  <path class="cls-20" d="M378.11,368.81c1.67,2.94,3.7,5.66,6.06,8.08l5.84-3.99c-1.71-3.04-4.28-5.51-7.38-7.1l-4.51,3Z"/>
  <path class="cls-20" d="M452.53,287.25c-2.24,1.06-4.69,1.56-7.16,1.47l-2.14,3.56s5.75,2.32,9.1-1.14l.21-3.89Z"/>
  <path class="cls-20" d="M491.64,441.2c2.94,1.77,5.4,4.22,7.18,7.15l-3.72,4.4-6.49-7.36,3.04-4.2Z"/>
  <path class="cls-20" d="M213.42,311.04c2.41,.84,4.5,2.42,5.96,4.51l4.88,.23c-1.02-1.12-2.17-2.12-3.43-2.96-1.96-1.26-7.41-1.78-7.41-1.78Z"/>
  <path class="cls-20" d="M343.91,496.84s-1.04,12.11,.99,17.54l-5.03,.6c-1.91-5.44-2.49-11.25-1.68-16.96l5.72-1.18Z"/>
  <path class="cls-20" d="M316.97,107.29s-29.57-6.33-47.44-3.14c0,0,62.32-17.49,47.44,3.14Z"/>
  <path class="cls-20" d="M362.71,164.87l-11.04-1.31-.9,11.97,10.52,.34,1.42-11Z"/>
</svg>