<svg width="682" height="614" fill="none" xmlns="http://www.w3.org/2000/svg"><g clip-path="url(#clip0_110_3490)"><path style="mix-blend-mode:screen" fill-rule="evenodd" clip-rule="evenodd" d="M552.013 275.985c0 152.404-123.596 275.946-276.019 275.946a274.695 274.695 0 01-117.31-26.134 274.877 274.877 0 01-20.588-10.768 275.89 275.89 0 01-70.847-58.621 272.626 272.626 0 01-20.43-26.674 272.822 272.822 0 01-22.329-40.065A274.718 274.718 0 01.04 275.985a274.967 274.967 0 0124.53-113.881 267.632 267.632 0 0117.253-32.144 274.891 274.891 0 0150.509-59.886A274.735 274.735 0 01275.994.04a276.302 276.302 0 0165.482 7.828 274.182 274.182 0 0181.339 34.437c4.824 3.044 9.543 6.208 14.13 9.542a255.302 255.302 0 0111.322 8.606 274.874 274.874 0 0148.282 49.58A273.937 273.937 0 01550.3 245.396a268.376 268.376 0 011.713 30.589z" fill="url(#paint0_radial_110_3490)"/><path fill-rule="evenodd" clip-rule="evenodd" d="M532.044 275.985c0 141.387-114.673 255.993-256.051 255.993a254.646 254.646 0 01-108.86-24.263c-6.511-3.044-12.878-6.392-19.099-9.977a256.52 256.52 0 01-65.733-54.377 251.766 251.766 0 01-18.94-24.751 254.663 254.663 0 01-20.747-37.165 254.83 254.83 0 01-22.671-105.433 254.98 254.98 0 0122.75-105.645 247.249 247.249 0 0116.015-29.824 254.914 254.914 0 0146.871-55.55 254.905 254.905 0 01170.375-64.974 256.243 256.243 0 0160.75 7.275 254.039 254.039 0 0175.447 31.933 250.006 250.006 0 0113.102 8.857c3.585 2.556 7.091 5.271 10.545 7.986a255.692 255.692 0 0144.749 46.061A253.91 253.91 0 01530.41 247.69a251.662 251.662 0 011.634 28.295z" fill="url(#paint1_radial_110_3490)"/><g style="mix-blend-mode:multiply" opacity=".5"><path fill-rule="evenodd" clip-rule="evenodd" d="M530.463 247.624a36.524 36.524 0 00-2.294 5.126 42.197 42.197 0 01-3.611 7.341 91.228 91.228 0 00-3.955 9.344c-2.979 6.893-5.167 14.379-7.645 21.469-2.754 7.908-5.351 15.815-8.738 23.459-1.516 3.466-3.731 6.59-5.273 9.977-1.542 3.387-3.058 6.708-4.943 9.989-4.666 8.013-8.884 16.185-13.826 24.066-8.884 14.194-19.574 26.806-29.934 39.919-5.272 6.59-11.415 12.349-17.412 18.306-6.775 6.695-12.733 14.194-19.771 20.744a134.947 134.947 0 01-17.293 14.497c-3.533 2.333-6.933 4.929-10.466 7.223-4.521 2.939-9.833 4.599-14.657 6.971-16.041 7.723-33.216 12.547-50.087 17.964-16.529 5.271-32.465 12.507-49.336 16.724-3.467.87-6.973 1.213-10.479 1.924-3.796.751-7.447 1.845-11.335 2.254-7.751.87-15.25 3.466-23.08 3.954-5.47.263-10.545-.791-15.896-1.055a169.891 169.891 0 00-20.536.896c-7.58.488-15.19.196-22.71-.869-6.512-3.045-12.878-6.392-19.099-9.977l.711.224c4.456 1.437 8.594 3.954 13.076 5.048 4.784 1.094 9.754 1.884 14.696 2.715a58.782 58.782 0 0019.574.118c3.467-.566 6.973-.988 10.439-1.7 3.77-.791 7.566.185 11.336-.672 5.272-1.318 11.045-.264 16.383-.461 9.227-.303 18.23-3.69 27.127-5.496 9.872-1.99 19.244-5.575 29.301-6.774 5.733-.685 10.241-2.636 15.672-4.336 4.666-1.437 7.645-4.033 11.52-6.972 7.46-5.575 14.999-11.294 23.725-14.906a139.858 139.858 0 0127.008-7.907 47.972 47.972 0 0021.616-10.28c2.571-2.306 5.009-4.718 7.54-7.051a111.358 111.358 0 009.226-8.579c3.164-3.625 6.775-6.933 9.899-10.544 3.467-4.019 6.301-8.54 9.728-12.573 5.456-6.444 13.787-9.792 19.164-16.342 1.134-1.318 1.885-3.018 3.058-4.336 1.173-1.318 2.518-2.069 3.269-3.835.91-2.148 3.137-7.117 1.925-9.528-2.412-4.864-15.185 7.643-17.215 9.594-3.163 2.978-5.76 6.036-9.569 8.211a55.591 55.591 0 01-6.999 3.729c-4.073 1.661-8.778 1.845-13.075 2.755-11.942 2.557-24.108 3.954-36.155 5.838-16.318 2.517-32.807 5.944-48.862 9.858-15.026 3.664-29.907 7.908-44.933 11.453-7.988 1.924-15.975 3.954-23.989 5.693-9.793 2.188-19.402 5.193-29.235 7.078-16.199 2.938-32.491 6.523-49.007 6.971-12.956.343-25.794 1.015-38.764 1.015-17.465 0-36.195 1.766-53.33-2.333a4.528 4.528 0 01-.646-.184 251.766 251.766 0 01-18.94-24.751 87.781 87.781 0 0019.586 6.142c4.903.87 10.097 1.99 14.156 4.929a29.476 29.476 0 008.476 4.784c11.151 3.585 21.089 3.361 32.253.079a473.47 473.47 0 0012.43-3.875c3.044-1.028 5.839-2.833 8.883-3.663 8.634-2.254 17.557-3.875 26.257-5.865 4.138-.949 8.475-1.74 12.548-2.979 4.587-1.436 8.884-3.769 13.286-5.574 8.436-3.467 16.278-7.038 25.32-8.593 5.681-.936 12.272-1.648 17.478-4.284 1.687-.83 4.218-2.003 3.954-4.256-.303-2.794-3.954-2.043-5.957-1.701-5.839 1.015-11.784 1.542-17.584 3.084a156.153 156.153 0 01-31.304 4.824c-15.896 1.054-32.095 2.003-48.031 1.173-12.654-.646-25.386-1.779-38.04-1.661-12.245.119-24.147-.935-35.786-4.784-13.141-4.322-26.52-8.276-38.672-14.945a254.83 254.83 0 01-22.671-105.433 254.98 254.98 0 0122.75-105.645c-1.7 4.679-3.124 9.463-5.088 13.97a69.62 69.62 0 00-6.208 27.676 79.594 79.594 0 01-.08 11.216c-.645 4.744-1.014 7.802.343 12.586 1.015 3.506 1.318 6.893 2.86 10.28a9.401 9.401 0 002.03 2.82 25.16 25.16 0 012.004 3.361c2.07 3.387 5.048 7.907 8.62 9.858a40.772 40.772 0 007.46 2.833c3.006.857 4.179 1.2 7.197.106a30.194 30.194 0 017.606-1.951c1.435.159 2.85.472 4.218.936 1.805.303 3.585.145 5.43.527 7.526 1.582 14.868 3.427 22.592 3.348 6.063-.066 12.021.949 18.163.949 7.381 0 14.684.224 21.986-.712 4.943-.646 10.254-1.885 15.184-2.188 4.93-.303 10.215.145 15.25.079 17.518-.276 35.589-4.494 50.812-13.337a110.088 110.088 0 0125.888-11.071c11.678-3.36 23.606-6.668 35.588-8.935a140.405 140.405 0 0032.227-10.398 87.384 87.384 0 0012.996-7.578c3.77-2.557 7.909-4.508 11.52-7.183 10.545-7.802 19.771-16.949 28.998-26.253 5.272-5.272 10.624-10.543 16.133-15.591 4.548-4.151 9.372-5.997 15.211-7.42 9.306-2.227 14.499-12.691 19.508-20.19 6.327-9.45 11.573-20.296 11.863-31.934a66.616 66.616 0 00-1.095-14.312 23.98 23.98 0 00-1.766-6.142 21.729 21.729 0 01-1.845-3.769c-.264-1.12-.303-2.293-.527-3.308-.224-1.015-.752-2.043-.976-2.86-.527-2.188-1.621-5.206-1.476-7.617v-.145c3.585 2.556 7.091 5.271 10.545 7.986a16.486 16.486 0 01-.079 3.005c-.224 1.213-.646 2.227-.87 3.427-.303 1.779-.976 2.794-.936 4.744-.08 1.948.07 3.9.448 5.812 1.239 4.745 4.337 9.147 4.297 14.155a39.316 39.316 0 01-3.322 14.747c-1.805 4.521-3.756 8.698-5.944 13.034a50.096 50.096 0 01-5.009 8.132 58.835 58.835 0 00-5.272 7.38 67.924 67.924 0 00-3.058 6.405c-1.661 3.954-4.337 6.023-7.342 8.962-6.182 5.957-13.906 10.781-20.536 16.501a97.43 97.43 0 00-14.723 15.208c-1.884 2.636-11.52 10.135-8.923 14.089 1.16 1.74 4.824 1.173 6.472 1.173a26.948 26.948 0 0010.966-2.451c9.372-4.257 18.717-9.305 28.589-12.244 4.442-1.318 9.227-2.03 13.405-3.954 5.07-2.36 9.979-5.05 14.697-8.052 3.73-2.307 5.945-5.272 8.739-8.593 1.582-1.885 3.796-2.939 5.536-4.665 2.03-2.043 3.308-4.415 5.575-6.181a70.584 70.584 0 0014.381-15.512c3.664-5.272 5.008-11.862 6.59-17.858a23.298 23.298 0 001.054-4.745c.066-2.029 0-4.138 0-6.181v-.329a253.907 253.907 0 0149.864 125.611z" fill="#C4B0B8" opacity=".5"/><path fill-rule="evenodd" clip-rule="evenodd" d="M413.773 80.788c-.976 5.8-1.503 11.519-2.636 17.318-1.134 5.799-1.424 12.243-3.77 17.594-3.954 9.225-5.193 19.466-11.441 27.597-2.636 3.466-4.719 7.196-8.106 10.095a28.99 28.99 0 01-4.06 2.228c-1.318.87-2.715 2.188-3.954 3.123-6.709 4.903-13.827 9.951-19.771 15.815-6.367 6.26-12.43 12.402-19.956 17.331-2.267 1.463-4.64 2.517-6.973 3.809a49.196 49.196 0 01-5.655 3.229 26.204 26.204 0 00-6.695 3.163 28.364 28.364 0 01-5.919 3.36c-3.611 1.424-7.117 3.124-10.729 4.521-1.661.672-3.4 1.054-5.088 1.647-4.784 1.819-8.29 1.661-14.498 2.148-1.951-.856-.29-.935 1.318-1.647a7.143 7.143 0 002.557-1.964 33.717 33.717 0 014.363-3.953c2.715-1.964 6.3-2.939 9.226-4.705 3.73-2.333 7.421-5.167 11.033-7.684 3.057-2.109 5.351-5.43 7.908-8.066 2.715-2.859 5.997-5.416 8.963-8.092 3.467-3.084 6.445-6.589 9.951-9.647a36.805 36.805 0 008.818-11.07c.976-1.806 2.558-3.124 3.573-4.969a46.443 46.443 0 002.86-5.192c.87-2.149 2.003-4.152 2.939-6.221 1.054-2.412 1.015-5.272 1.542-7.789a885.084 885.084 0 004.482-22.721 127.848 127.848 0 001.436-19.466c.224-6.18 1.964-12.203 1.991-18.45a15.103 15.103 0 00-.897-6.748c-1.318-2.94-2.794-5.496-3.848-8.553a49.603 49.603 0 00-17.135-23.604c-1.2-.87-5.009-3.163-8.779-5.918A254.047 254.047 0 01412.27 59.24a50.298 50.298 0 011.503 21.548z" fill="#C4B0B8" opacity=".5"/><path fill-rule="evenodd" clip-rule="evenodd" d="M339.565 81.197c-.554 3.242-2.518 5.693-3.427 8.777a73.96 73.96 0 00-2.333 10.702c-.752 5.495-.264 10.952-.897 16.487a94.87 94.87 0 01-9.226 29.983c-4.6 9.37-12.469 17.053-21.09 22.865-8.883 6.063-18.756 10.689-28.47 15.17-5.536 2.53-11.375 3.584-17.03 5.733-4.745 1.766-9.411 3.795-14.13 5.64-4.718 1.845-8.963 5.008-13.629 6.524-2.899.936-5.76 1.911-8.659 2.965-4.983 1.78-9.504 4.415-14.354 6.485a123.326 123.326 0 01-21.248 6.971c-7.197 1.687-14.156.593-21.392-.303a174.34 174.34 0 01-18.124-2.636c-10.953-2.635-22.75-1.884-33.927-1.884-8.476 0-18.269.83-25.769-3.77-2.148-1.317-4.521-2.714-5.72-4.968-1.477-2.794-1.661-6.326-2.307-9.344-1.318-6.208-7.223-10.438-11.257-14.985-5.272-5.957-7.275-13.482-8.33-21.166a57.3 57.3 0 01.462-19.927 254.934 254.934 0 0146.871-55.523c-4.284 8.131-7.527 16.763-11.296 25.159-5.681 12.573-10.69 26.279-10.202 40.328.184 5.509.632 11.677 3.572 16.461 2.267 3.69 5.997 6.365 9.608 8.553 5.919 3.545 11.863 7.459 18.23 9.898 7.196 2.754 14.393 5.39 21.55 8.144 4.179 1.582 8.212 3.387 12.733 3.954 5.552.444 11.128.492 16.687.145 19.692-.527 37.882-9.753 56.414-15.327 5.958-1.806 12.139-2.636 18.005-4.587a76.914 76.914 0 0010.255-4.678c8.238-4.257 17.24-7.46 24.964-12.771a106.376 106.376 0 0020.72-18.859c4.6-5.509 6.67-11.005 8.924-17.779 4.442-13.337 6.142-26.174 7.341-40.078.528-5.904 2.571-11.176 3.955-16.909.896-3.796.369-8.171-2.637-10.925-6.102-5.378-15.105-8.738-22.908-10.544-4.745-1.133-9.226-2.636-14.156-2.636h-14.433c-4.824 0-9.148-1.014-13.787-1.014-5.457 0-10.545 1.541-15.936 1.963-5.644.4-11.263 1.104-16.832 2.109-6.59 1.16-12.956 3.796-19.362 5.72a110.6 110.6 0 00-35.391 17.857c-2.636 2.03-5.496 3.651-8.251 5.457-2.412 1.62-3.282 3.466-4.824 5.878a49.547 49.547 0 00-6.775 15.63 45.873 45.873 0 00-.87 12.244 96.87 96.87 0 01-1.621 16.526c-1.318 7.684-8.7 19.097-.567 25.238a10.548 10.548 0 007.908 1.845 90.049 90.049 0 0012.272-2.859c11.269-3.163 23.053-6.933 34.731-8.409 3.546-.448 6.894-.184 10.4-1.08 2.188-.607 4.257-1.318 6.472-1.74 5.127-.936 10.254-4.257 14.274-7.604 1.846-1.542 3.362-3.427 5.273-4.969 2.557-2.109 5.641-3.506 8.093-5.772 3.506-3.229 6.854-6.735 10.136-10.201 6.735-7.077 11.599-15.934 17.32-23.723 3.624-4.942 7.644-10.319 8.633-16.46.751-4.745-5.048-7.275-8.594-8.778a23.727 23.727 0 00-12.205-1.7c-5.76 1.028-11.033 4.455-16.384 6.748-11.784 5.166-24.938 6.444-35.18 14.72-3.73 2.98-3.545 5.84-4.705 9.99a37.587 37.587 0 01-2.9 5.72c-1.542 2.86-1.74 3.572-.949 6.59s1.516 7.038 4.943 8.356c2.965 1.173 7.75.158 10.32-1.463a22.522 22.522 0 014.706-2.86c1.094-.422 3.77-1.661 4.824-1.318 1.885.712.488 1.871-.303 2.899a14.178 14.178 0 00-1.701 2.9 9.022 9.022 0 01-1.133 2.939c-3.005 3.426-8.989 5.153-13.181 6.589-3.651 1.318-6.393 2.781-10.386 2.821-5.391 0-3.203-3.954-3.955-7.908-1.054-5.008-6.827-6.879-7.46-12.085-.633-5.206.975-10.952 3.084-15.512a38.906 38.906 0 013.361-5.47c1.991-3.044 4.93-4.85 7.975-6.892 8.963-5.904 20.153-8.738 30.316-12.164 10.162-3.427 21.247-4.02 31.304-7.605 6.854-2.451 14.051-3.242 21.09-4.52 6.511-1.16 12.245 1.397 14.947 7.34 2.873 6.3 6.261 13.114 4.257 20.086-2.715 9.594-5.905 19.123-10.953 27.795-6.222 10.688-13.787 20.783-25.044 26.701-7.908 4.177-16.502 6.51-24.859 9.634a97.29 97.29 0 01-19.6 5.522c-10.439 1.581-20.008 7.749-30.21 10.319a411.939 411.939 0 01-42.601 8.276 50.487 50.487 0 01-15.289.462c-2.412-.343-4.64-.119-6.934-1.134-1.621-.711-3.282-1.476-4.89-2.148-5.575-2.412-10.966-6.405-10.333-13.179.606-6.366 2.913-12.771 4.112-19.018.83-4.151.909-8.25 1.924-12.401.752-3.163 1.463-6.392 2.333-9.529a26.867 26.867 0 013.282-7.749c2.966-4.152 5.273-9.002 8.397-12.955a33.092 33.092 0 003.611-4.679 18.251 18.251 0 012.755-4.217c1.199-1.318 2.03-3.045 3.308-4.363a59.205 59.205 0 018.067-6.141 111.208 111.208 0 0119.653-11.558c6.748-2.94 13.787-4.903 20.72-7.236 6.221-2.148 11.981-5.535 18.163-7.907a94.604 94.604 0 0121.696-5.272 352.07 352.07 0 0144.551-3.097c18.69.08 39.397-6.998 57.139 1.924a19.556 19.556 0 019.951 10.438 58.637 58.637 0 014.521 23.723c-.039 3.453.369 7.037-.197 10.385z" fill="#C4B0B8" opacity=".5"/></g><g style="mix-blend-mode:soft-light" opacity=".63"><path fill-rule="evenodd" clip-rule="evenodd" d="M50.233 161.629c1.318 3.453 3.005 6.471 4.125 9.977a30.003 30.003 0 003.005 7.143c1.398 2.267 2.241 4.85 3.572 7.183a35.944 35.944 0 013.493 8.184c.54 2.109.633 4.336 1.213 6.471.738 2.728 1.476 5.469 2.24 8.198a18.311 18.311 0 002.334 4.784c1.001 1.607 2.161 4.125 3.73 5.271 5.048 3.572 12.284 2.056 18.11 1.424 5.273-.567 10.677-.607 15.989-1.318a47.06 47.06 0 018.409-.198c2.684.132 5.356.436 8.001.909 2.293.448 4.521.514 6.827.883 3.309.528 6.591 1.318 9.912 1.661 3.704.29 7.514.83 11.217.909 5.273.093 10.716-.448 16.015.119a134.61 134.61 0 0013.945 1.318c6.077 0 12.14-1.806 17.781-3.862 9.398-3.426 19.086-6.22 28.524-9.673a64.208 64.208 0 009.806-5.272c2.887-1.687 5.984-2.794 8.765-4.652a51.64 51.64 0 0117.135-6.748c5.932-1.318 11.666-3.466 17.544-4.85 3.954-.922 7.724-2.926 11.652-3.44-.738 3.084-7.473 4.205-9.886 5.074-5.575 1.99-11.625 3.084-17.016 5.509-3.519 1.595-6.024 4.639-8.792 7.223-2.636 2.372-4.468 4.836-7.407 6.8a25.236 25.236 0 01-9.583 3.954c-7.579 1.515-14.973 4.23-22.526 5.904-7.552 1.674-14.934 3.4-21.88 6.59-1.924.896-7.579 3.123-7.816 5.904-.185 2.227 2.517 1.41 4.086 1.41 3.374 0 7.829-.804 11.006.527a39.618 39.618 0 007.091 2.715 31.97 31.97 0 0017.135-1.792c7.25-2.821 15.171-4.257 22.79-5.707 5.272-1.015 10.4-2.53 15.659-3.637 4.046-.718 8.13-1.202 12.232-1.45 5.957-.567 11.928-1.252 17.846-2.24 4.732-.804 9.912-1.318 14.249-3.387 3.598-1.767 7.816-2.874 10.993-5.351.843-.659 5.641-4.797 6.761-3.849 2.333 2.004-10.94 9.555-11.862 10.175a71.9 71.9 0 01-13.577 6.708c-6.036 2.464-12.231 3.545-18.453 5.113-7.17 1.78-14.314 3.256-21.445 5.074-7.131 1.819-14.499 2.729-21.63 5.114a75.186 75.186 0 00-10.465 4.099c-3.085 1.581-6.367 2.636-9.411 4.283-6.591 3.519-12.746 8.461-19.877 10.754a84.485 84.485 0 01-19.152 4.218c-8.554.685-17.135-.514-25.597-1.397a218.04 218.04 0 00-26.124-1.477c-8.067.132-16.121 1.819-24.174 2.201-5.549.264-10.004-1.713-15.105-3.611a90.407 90.407 0 01-15.896-8.052 26.837 26.837 0 00-15.013-4.086 19.538 19.538 0 00-3.335.765 5.567 5.567 0 01-3.612-.989c-4.745-2.227-9.503-5.891-11.862-10.794a57.802 57.802 0 01-4.442-16.592 77.051 77.051 0 01-.119-9.871c0-4.363-.79-8.659-.751-13.048 0-6.932-.791-14.286 1.397-20.994 2.043-6.313 6.248-12.204 10.083-17.529 2.188-3.018 3.954-6.26 6.235-9.225.804 1.582-1.107 4.613-1.503 6.247-.487 2.333-1.37 6.642-2.596 4.296zM375.667 199.454c-2.043 2.636-5.72 6.023-6.287 9.489-.567 3.466 3.216 2.873 5.668 2.504 5.272-.83 10.808-1.318 15.817-3.4 2.965-1.226 5.733-2.926 8.699-4.165 2.452-1.041 5.075-1.41 7.526-2.438 5.839-2.465 12.127-3.769 17.913-6.432a51.4 51.4 0 0013.642-9.989c2.847-2.729 5.589-4.85 7.553-8.369 1.436-2.636 3.15-5.14 4.336-7.908a44.468 44.468 0 002.834-11.532c.283-2.102.31-4.23.079-6.339-.659-4.823-5.509-5.271-9.609-4.705-5.048.699-9.108 3.638-12.851 6.853-3.743 3.216-6.59 6.801-10.676 9.226-4.495 2.741-8.871 5.509-13.181 8.474a39.594 39.594 0 00-6.472 5.1c-1.634 1.674-3.216 3.467-4.996 4.995a45.755 45.755 0 01-5.839 4.073c-1.647 1.028-3.163 2.477-4.85 3.36a23.952 23.952 0 00-6.011 4.284 16.45 16.45 0 00-3.255 3.835c-1.384 2.609-1.108 5.825-.04 3.084zM434.19 129.525c.87-2.715 1.45-3.73 3.954-5.035 1.556-.817 2.636-1.028 3.757.699 2.03 3.334.566 7.393-.752 10.609-.949 2.346-4.732 4.705-6.458 1.753-1.16-2.003-1.121-7.907 1.647-8.738l-2.148.712z" fill="#C4B0B8" opacity=".63"/><path fill-rule="evenodd" clip-rule="evenodd" d="M220.094 228.712c1.318-2.439 1.621-2.702 3.954-3.585a14.651 14.651 0 014.706-1.424c2.016-.197 4.218-1.317 6.261-.553 3.137 1.12 2.544 3.875.421 5.825a6.473 6.473 0 01-3.137 1.872c-1.641.43-3.326.669-5.021.711-2.874 0-5.273.119-7.777-1.568a1.135 1.135 0 01.659-1.318l-.066.04zM100.188 409.201a78.415 78.415 0 0025.465 4.362 263.23 263.23 0 0030.751-.923c6.801-.645 13.55-.474 20.325-1.436 3.282-.475 6.406-.33 9.688-.488 1.885-.079 3.862-1.199 5.707-.619 7.131 2.174-5.536 6.273-6.973 6.985-5.153 2.556-10.913 3.439-16.383 5.034-2.109.606-4.258 1.213-6.327 1.924a48.821 48.821 0 01-5.852 2.175c-8.397 1.832-16.793 2.636-25.163 4.441a24.645 24.645 0 01-9.661.567c-3.348-.619-6.472-2.636-9.451-4.125a72.52 72.52 0 01-10.703-5.852 35.395 35.395 0 01-4.89-3.953 7.42 7.42 0 01-1.318-2.9c-.844-2.161-.804-3.031 1.055-4.613a5.277 5.277 0 015.061-1.133c.013.211.053.409-1.331.554zM317.382 493.455a42.409 42.409 0 00-11.995 5.483c-1.608 1.133-3.585 3.07-1.212 4.52 3.203 1.951 8.409.909 11.862.606 5.958-.54 11.863-1.634 17.768-2.412 4.033-.54 7.988-.962 11.968-1.766a127.987 127.987 0 0015.277-4.401 46.636 46.636 0 0010.545-4.903 89.526 89.526 0 0010.109-6.59c4.099-3.439 9.504-6.128 11.085-11.624 1.318-4.573-8.567-2.925-10.544-2.635a108.546 108.546 0 00-21.525 5.363c-3.018 1.068-6.247 1.885-9.226 3.177-3.954 1.752-7.737 3.835-11.771 5.39-1.911.751-3.585 1.95-5.523 2.636-1.7.632-3.413 1.199-5.101 1.884-1.687.686-3.769 1.621-5.694 2.241-4.349 1.489-8.725 2.688-6.023 3.031zM396.375 460.151c.751-2.464 2.332-3.598 4.165-5.377 1.423-1.384 2.781-2.873 4.85-3.163 1.529-.224 3.954 1.542 3.282 3.295a12.87 12.87 0 01-2.069 2.636 7.839 7.839 0 01-2.715 2.636 9.854 9.854 0 01-7.039.448l-.474-.475zM422.064 400.212a33.565 33.565 0 01-5.444 2.636c-1.435.33-2.887.581-4.349.751-4.363.686-8.871.989-13.274 1.424-5.628.553-11.216 1.318-16.845 1.779-9.938.751-20.39 1.608-29.894 4.665a134.316 134.316 0 00-23.119 9.845 121.728 121.728 0 00-18.598 11.861 58.558 58.558 0 00-5.365 5.167 14.864 14.864 0 00-3.018 3.953c-1.041 2.346-.092 3.954 1.964 5.272 3.203 2.043 7.091 2.227 10.755 2.728 5.444.751 10.861 1.437 16.279 2.28a158.054 158.054 0 0016.924 1.845c5.813.264 11.863.145 17.399-1.963a78.876 78.876 0 0011.388-5.127c3.559-2.043 7.104-4.059 10.479-6.392a53.326 53.326 0 007.117-5.021c.936-.883 1.885-1.648 2.86-2.465 1.516-1.318 2.637-2.912 4.152-4.191a59.008 59.008 0 009.227-9.7c2.083-2.741 4.613-5.074 6.67-7.815 1.212-1.634 2.478-2.491 3.202-4.494a30.354 30.354 0 001.49-7.038zM433.953 392.068a14.506 14.506 0 013.664-4.376c1.2-1.133 2.782-3.123 4.442-3.651a2.435 2.435 0 012.491.383c.294.343.512.745.639 1.179.127.434.161.89.1 1.338-.343 2.003-2.294 3.558-3.955 4.428-2.069 1.068-3.282.527-5.457.224l-1.924.475zM509.611 321.243a17.919 17.919 0 00-2.953 2.873c-1.318 1.911-2.425 3.953-3.954 5.706a43.185 43.185 0 00-4.099 6.208c-1.556 2.715-3.388 5.271-4.838 7.999-3.137 5.957-5.628 12.231-8.435 18.346-1.411 3.057-2.637 6.194-3.955 9.225a40.747 40.747 0 00-3.361 10.24c-.408 2.557-1.067 6.946 2.373 7.407 4.27.58 8.567-3.097 11.678-5.548a93.1 93.1 0 0020.641-23.262c5.536-8.751 10.901-19.268 9.517-29.929a57.485 57.485 0 01.316-14.498c.659-5.1 2.228-10.2 2.32-15.366 0-3.664.672-7.249-.132-10.86a4.653 4.653 0 00-1.555-3.058c-.949-.553-1.608 0-2.465.646a19.229 19.229 0 00-6.011 7.183c-1.687 3.505-1.779 7.288-3.202 10.886a38.9 38.9 0 01-1.384 3.769c-.528.988-1.174 1.937-1.714 2.939a24.955 24.955 0 00-1.766 5.654c-.317 1.199-.501 2.319-.831 3.519-.263.935-.672 1.937-.856 2.886-.185.949.145 1.713 4.666-2.965zM470.121 384.516c-.856.843-6.037 5.851-4.033 7.13.554.356 2.083 0 2.636-.251a10.65 10.65 0 002.834-1.963 3.508 3.508 0 001.41-3.44c0-2.254-1.423-2.188-3.321-1.424l.474-.052zM482.485 396.403c1.107-1.476 1.423-2.108 2.979-2.714a18.86 18.86 0 013.585-1.621c1.647-.264 2.412.355 2.544 2.016.237 2.833-3.256 6.497-4.825 8.514a39.545 39.545 0 01-6.59 7.064c-3.572 2.794-6.169-1.714-4.837-5.061.804-2.03 1.133-4.428 2.399-6.234 1.977-2.833 4.929-2.82 8.093-3.4l-3.348 1.436zM206.531 88.13a12.14 12.14 0 00-6.037 7.907c-.501 1.62-1.134 5.074.224 6.471 2.32 2.398 8.541-.224 10.795-1.094 4.389-1.687 8.858-4.191 13.431-5.272 8.634-1.99 18.111-2.794 25.532-8.105a45.656 45.656 0 0010.689-11.36c1.872-2.729 4.337-4.943 4.587-8.462.488-7.116-9.451-7.59-14.13-6.497a140.232 140.232 0 00-28.998 9.819c-5.456 2.635-12.231 5.983-16.08 10.886a18.267 18.267 0 00-2.32 4.441c-.475 1.12-1.529 4.35 2.307 1.265zM225.089 108.109c-1.173-2.636-1.753-2.86.198-4.455a31.67 31.67 0 015.272-3.281 15.367 15.367 0 017.144-1.608c4.983.593 2.716 6.207 1.174 8.909-.963 1.7-1.674 3.268-3.283 4.178-1.898 1.08-3.176 1.634-5.272.935a11.696 11.696 0 01-3.954-2.517c-.844-.751-2.808-2.122-2.636-3.466l.619-.119.738 1.424zM190.108 169.484c.118-2.359-.079-2.886 1.397-4.375 2.188-2.241 5.404-3.954 7.988-5.615a80.655 80.655 0 0118.901-8.803 112.605 112.605 0 0118.123-4.204c4.587-.712 8.924-2.228 13.537-2.873 7.105-.976 15.817-4.415 21.498 2.319 4.561 5.456-3.875 12.678-7.908 15.644a30.05 30.05 0 01-11.455 5.047c-4.916 1.239-9.767 2.715-14.683 3.954-9.134 2.267-17.623 6.59-26.362 10.03-6.023 2.345-10.32 2.121-15.738-1.463-2.939-2.017-7.934-7.17-5.298-9.661zM272.896 128.813c-1.186 2.188-4.138 6.194-.329 7.565 2.162.778 3.717-.962 5.272-2.201 1.556-1.239 3.862-2.636 5.048-4.652a3.33 3.33 0 00.581-3.069 3.346 3.346 0 00-2.215-2.203c-4.468-1.99-6.59 2.293-9.134 5.272l.777-.712zM342.847 85.282c-3.954 4.112-6.34 8.896-5.694 14.735.646 5.838 4.455 6.932 9.226 4.547a27.194 27.194 0 004.139-2.122c1.318-1.028 2.135-2.952 3.137-4.297a15.563 15.563 0 003.414-10.016c0-3.598.422-7.446-.54-10.925-.528-1.925-1.318-4.508-3.006-5.694-2.003-1.318-3.532.435-4.995 1.621a12.187 12.187 0 00-3.585 3.427 40.883 40.883 0 00-3.599 9.436l1.503-.712zM262.194 208.02c.171-2.715.092-2.899 2.056-4.402a45.77 45.77 0 014.521-3.321 26 26 0 019.78-3.018 13.946 13.946 0 017.908 1.318c1.543.87 1.832 2.636 1.45 4.468-.54 2.57-3.097 4.204-5.008 5.72-1.912 1.515-4.548 3.545-6.96 4.125a17.957 17.957 0 01-8.95.356c-1.792-.475-5.575-1.226-5.536-3.77l.739-1.476zM297.162 183.046c1.753-2.478 2.861-4.679 5.536-6.3 1.16-.712 4.073-2.886 5.563-2.886a3.097 3.097 0 012.451 2.398c.159 1.252-1.067 2.926-1.74 3.954a14.492 14.492 0 01-6.076 5.166 4.985 4.985 0 01-3.585.396c-1.318-.369-1.793-1.595-2.86-1.99l.711-.738zM157.999 77.428c-3.506 3.479-6.366 7.156-7.5 12.138a3.825 3.825 0 001.015 4.177c1.859 1.648 4.231.752 6.406 0 6.089-2.069 11.863-5.706 17.135-9.225 4.851-3.19 11.349-4.085 15.066-8.725 2.016-2.504 4.125-5.271 2.188-8.592-1.687-2.834-5.971-4.046-8.99-4.1a26.222 26.222 0 00-12.535 3.375 43.284 43.284 0 00-12.785 10.952zM138.017 62.443c6.749-1.318 12.574-2.702 18.453-6.3 1.186-.712 2.373-1.054 3.506-1.7 1.134-.646 1.318-1.397 2.162-2.188-.58-2.74-7.975-1.094-9.675-.369-2.267.95-4.56 2.28-6.762 3.387a23.914 23.914 0 00-3.427 1.872c-2.201 1.634-3.519 4.468-4.995 6.721l.738-1.423z" fill="#C4B0B8" opacity=".63"/></g><g style="mix-blend-mode:multiply" opacity=".47"><path fill-rule="evenodd" clip-rule="evenodd" d="M347.842 212.831a60.902 60.902 0 01-6.01 3.321c-3.388 1.384-6.472 3.334-9.833 4.784-3.954 1.713-8.225 2.846-12.298 4.243a83.565 83.565 0 00-16.515 7.42c-5.273 3.216-10.308 7.908-13.01 13.496-1.542 3.229-2.175 7.591-.29 10.846a11.784 11.784 0 004.851 4.85c3.466 1.555 6.84.567 10.32-.25a53.735 53.735 0 0012.693-4.494c2.149-1.12 4.192-2.425 6.34-3.559 2.149-1.133 4.745-2.056 7.105-3.018a70.55 70.55 0 015.589-2.003 21.485 21.485 0 006.405-3.426 33.235 33.235 0 009.398-10.373c2.94-5.271 4.469-10.648 3.454-16.553-.791-4.573-4.152-6.813-8.199-5.284z" fill="#C4B0B8" opacity=".47"/><path fill-rule="evenodd" clip-rule="evenodd" d="M283.125 245.607c-1.318-1.753-2.162-1.581-4.271-1.463-1.63.176-3.246.462-4.837.857-7.909 1.661-15.975 2.504-23.831 4.52a53.504 53.504 0 00-12.548 4.455c-3.954 2.135-8.08 4.046-11.968 6.379a93.321 93.321 0 01-28.774 11.782c-6.367 1.318-12.733 2.636-19.126 3.822-3.848.711-7.75 1.318-11.586 2.109-3.835.79-7.631 1.91-11.48 2.767a146.015 146.015 0 00-20.285 5.694c-6.736 2.543-13.603 4.902-18.875 10.003-2.702 2.635-6.169 6.444-6.156 10.451a15.53 15.53 0 002.636 7.907c5.273 8.725 15.409 13.904 24.214 18.372 12.205 6.194 26.717 6.998 40.069 8.54a166.208 166.208 0 0052.21-2.636c7.71-1.568 15.474-3.097 23.211-4.547 9.332-1.752 18.77-2.991 28.075-4.942 7.658-1.621 15.369-3.413 22.895-5.601a94.549 94.549 0 0012.14-4.257 99.42 99.42 0 009.978-5.522 70.286 70.286 0 007.908-5.074 35.403 35.403 0 005.563-6.102c2.741-3.532 4.507-7.433 6.695-11.268a84.263 84.263 0 014.745-7.855c1.78-2.438 3.876-4.731 5.813-7.051 4.06-4.889 9.042-9.107 12.838-14.181 2.215-2.952 4.376-6.668 4.68-10.398.21-2.543.224-5.153-2.439-6.313a15.825 15.825 0 00-8.185-.87 49.644 49.644 0 00-8.093 2.307 75.67 75.67 0 00-13.537 5.351c-10.861 5.825-21.551 13.06-33.782 15.656-5.049 1.081-10.097 1.635-14.947-.369a49.968 49.968 0 01-10.321-5.403c-4.218-3.044-2.939-6.656-1.094-10.82.791-1.845 3.084-5.839 2.465-6.3zM517.69 188.989a91.305 91.305 0 01-1.067 13.272c-.277 1.964-.607 3.954-.91 5.878-.408 2.636-1.66 4.955-2.28 7.551-1.107 4.653-3.321 8.685-5.272 12.995-1.951 4.31-3.269 9.028-5.273 13.456-5.456 12.547-8.712 25.844-14.037 38.431-2.636 6.233-5.035 12.678-7.909 18.78-2.636 5.496-5.76 10.754-8.488 16.184-1.028 2.03-3.836 5.772-1.7 7.907 1.7 1.687 4.797.132 6.59-.83 7.17-3.835 10.215-12.915 14.631-19.281 2.24-3.216 5.681-5.641 8.014-8.83 3.044-4.165 6.656-9.133 8.659-13.838 4.166-9.74 6.723-19.835 10.334-29.772 2.992-8.211 3.44-16.171 3.44-24.79 0-3.611.409-7.235-.685-10.688-1.002-3.256-1.793-8.646-4.047-26.425zM504.378 201.352c-3.031 2.912-9.226 10.068-6.274 14.826 1.621 2.636 6.34 1.476 8.001-.764 1.423-1.924 1.12-5.14 1.12-7.394 0-1.239.409-3.097 0-4.217-.408-1.12-1.582-1.318-1.832-2.451h-1.015zM446.33 339.351a102.613 102.613 0 00-11.138 7.63 69.455 69.455 0 01-10.716 5.918 111.066 111.066 0 01-29.749 9.304c-13.181 2.307-26.731 4.06-39.543 8.29-9.727 3.203-19.362 6.59-28.998 10.029-9.094 3.216-19.428 5.523-27.521 10.966-1.99 1.317-4.666 3.413-3.954 6.102 1.133 4.296 9.951 4.467 13.088 4.599 9.464.395 19.06 0 28.537 0 4.547 0 9.108-.25 13.642.198a85.99 85.99 0 0016.977 0c7.104-.633 14.499-.488 21.379-2.636 13.181-4.231 26.269-9.226 39.174-14.273 11.572-4.573 28.365-14.023 27.35-28.48-.435-6.26-4.31-15.011-8.528-17.647zM465.363 350.738c-1.925-3.954-2.439-4.995-.356-8.646 1.318-2.319 5.272-5.733 8.225-5.746 5.891 0 6.076 6.748 4.758 10.846-1.16 3.585-2.636 9.041-6.92 9.226a4.529 4.529 0 01-3.757-1.16c-1.397-1.028-3.321-4.31-4.811-4.56l2.861.04zM50.523 362.151c-1.068 4.481-1.714 8.566.474 12.876 3.018 5.996 9.688 10.016 15.817 11.953a46.1 46.1 0 0011.863 1.832c4.494.211 8.976.91 13.47.989 6.729.083 13.444.615 20.101 1.594 3.704.541 7.289 1.621 10.98 2.069 2.871.308 5.722.774 8.541 1.397 6.011 1.397 11.995 1.437 18.058 2.28 6.43.755 12.935.604 19.323-.448 5.549-.83 11.428-1.568 14.064-6.932 2.069-4.217.553-6.484-3.137-9.357-3.282-2.557-8.792-3.664-12.641-4.929-5.891-1.951-11.744-3.756-17.794-5.272-8.435-2.043-16.555-5.047-24.898-7.512-17.135-5.048-33.572-12.085-51.498-13.706-7.42-.686-16.199-.765-23.053 2.636a10.08 10.08 0 00-4.719 5.535c-1.476 3.571.303 5.72 5.049 4.995zM49.52 330.758c.99 3.137.791 4.112 3.691 4.995 1.864.77 3.915.967 5.892.566 2.452-.711 5.378-2.517 5.694-5.087.356-2.86-2.175-4.981-4.508-6.233-4.679-2.504-8.449-2.307-10.769 2.899v2.86zM250.304 120.484a9.42 9.42 0 011.015-4.929 46.416 46.416 0 013.269-6.141c.91-1.318 1.489-2.781 2.346-4.152 1.213-1.937 2.452-3.703 3.493-5.746a40.687 40.687 0 015.273-7.09 25.97 25.97 0 003.321-4.771c.751-1.424 1.885-2.53 2.636-3.954 1.002-1.74 1.674-3.782 2.636-5.601a52.54 52.54 0 013.19-5.707 14.916 14.916 0 012.9-3.756 19.73 19.73 0 012.834-2.372c2.293-1.002 3.466-.211 4.653 1.91a24.251 24.251 0 012.451 12.047 45.367 45.367 0 01-2.359 12.665 49.387 49.387 0 01-4.139 8.158c-2.807 4.942-6.168 9.515-9.45 14.154-1.938 2.742-5.207 5.008-7.909 7.077a17.46 17.46 0 01-5.536 2.926c-1.133.369-2.715 1.147-3.954.896a24.403 24.403 0 01-3.361-1.318c-2.742-1.014-4.06-3.373-3.309-4.296zM239.839 124.293c-1.648.83-3.375 1.41-4.073 3.216-.198.487-.514 1.528-.172 2.042 1.318 1.911 5.853-.645 6.881-1.673 1.028-1.028 2.162-2.913 1.173-4.271a2.648 2.648 0 00-1.848-.948 2.637 2.637 0 00-1.961.685v.949zM324.051 56.262a10.23 10.23 0 00-2.992 1.99 10.162 10.162 0 00-.923 2.398 39.244 39.244 0 00-2.214 9.345c-.316 3.136-.409 8.685 3.256 9.976 7.117 2.504 17.517-2.636 18.097-10.609.329-4.534-2.135-8.751-4.785-12.204a26.528 26.528 0 00-4.534-4.955 5.76 5.76 0 00-4.257-1.2c-2.465.501-4.337 2.953-1.648 5.259zM322.614 95.272c0-1.555 0-1.937 1.028-2.952a7.506 7.506 0 012.32-1.74c1.687-.553 2.781.699 2.86 2.294.066 1.212.119 3.677-.975 4.52-1.094.844-5.523.08-5.272-1.647l.039-.475zM374.481 62.917c-.725 2.966-.619 6.023-1.186 9.054a105.003 105.003 0 00-1.635 15.038c-.092 2.636 0 5.18-.131 7.776a62.662 62.662 0 00-.317 9.568c.422 4.125.883 8.461 3.625 11.755 1.951 2.346 4.679 1.49 7.249.541a29.884 29.884 0 005.747-3.664 30.609 30.609 0 004.06-3.176c5.681-5.272 10.795-11.084 13.075-18.715 1.648-5.548 3.269-11.86 1.912-17.58a22.081 22.081 0 00-4.785-9.924 22.268 22.268 0 00-6.696-4.996c-2.096-1.12-4.363-1.212-6.59-1.74a25.114 25.114 0 00-5.694-.605 27.888 27.888 0 00-5.273.527c-3.73.698-4.653 5.654-3.361 6.141zM380.188 124.767c.659-2.069 2.149-4.204 4.587-3.071a3.655 3.655 0 011.858 4.745 3.187 3.187 0 01-3.69 1.581 5.458 5.458 0 01-2.307-1.818c-.857-1.147-.158-2.043 0-3.348l-.448 1.911zM386.858 175.665a24.708 24.708 0 00-5.536 1.173 4.207 4.207 0 01-.699 1.16c-.382.501-1.516 1.16-1.318 1.885 2.399 1.014 5.826-.607 7.909-1.727a14.119 14.119 0 003.044-2.003 12.445 12.445 0 001.622-1.727c.764-1.383 0-2.108-1.411-2.095-1.41.013-4.863 1.107-4.995 2.86l1.384.474zM465.837 167.586a9.421 9.421 0 01-1.067 4.653c-.672 1.7-1.621 3.716-1.318 5.614.659 4.494 6.867 3.598 10.03 3.189 3.717-.487 7.25-1.318 10.031-3.953a10.27 10.27 0 003.651-6.761c.659-4.771 1.766-12.837-5.272-12.745a15.306 15.306 0 00-8.093 2.979 18.736 18.736 0 00-4.231 4.125c-1.635 1.911-3.441 3.506-3.731 2.899zM416.356 426.333c2.057-6.668 5.273-12.335 11.376-16.118 1.423-.883 2.636-2.029 4.336-1.146 1.397.738 1.134 2.359.699 3.743a20.176 20.176 0 01-3.546 5.864 57.714 57.714 0 01-4.547 4.587 7.825 7.825 0 01-3.322 2.148c-1.702.059-3.385.37-4.996.922zM174.172 433.99c.119-2.556 1.595-3.756 3.611-5.443a44.64 44.64 0 0115.092-7.643c4.667-1.463 10.229-2.491 15.066-1.16 2.162.606 4.864 1.647 5.787 3.861 1.581 3.822-2.531 9.45-5.576 11.558-3.836 2.636-9.385 3.453-13.774 4.784a31.026 31.026 0 01-12.64 1.068 18.337 18.337 0 01-4.495-.83 40.906 40.906 0 01-4.086-1.239c-1.186-.633-2.728-1.621-2.834-3.031a4.583 4.583 0 01.58-2.425c.751-1.213 2.333-1.371 3.269.5z" fill="#C4B0B8" opacity=".47"/></g><g style="mix-blend-mode:soft-light"><path fill-rule="evenodd" clip-rule="evenodd" d="M458.943 150.401c-1.555 1.041-4.508 2.517-3.954 4.863.348 1.045.753 2.07 1.213 3.071.293.925.483 1.88.567 2.846a8.608 8.608 0 001.753 4.363c.711.777 1.463 0 1.95-.751a5.278 5.278 0 001.108-2.636 18.18 18.18 0 01.434-3.69c.132-.475.488-.897.594-1.318a8.12 8.12 0 00.079-2.03 5.102 5.102 0 00-3.744-4.718zM434.084 284.209c-.276.145-.606.25-.751.54-.066.16-.106.329-.119.501-.065.751.976 1.081 1.49 1.226a5.672 5.672 0 004.534-.475 4.254 4.254 0 001.964-2.807 3.853 3.853 0 00-2.162-3.466 3.776 3.776 0 00-3.809-.382c-.448.265-.8.667-1.002 1.147-.145.395-.118.817-.237 1.212s-.514.923-.435 1.502c.055.385.241.739.527 1.002zM442.56 286.753a.88.88 0 01.408-.791.673.673 0 01.883-.119 1.153 1.153 0 01.453.755 1.146 1.146 0 01-.215.853 1.214 1.214 0 01-1.094.343.948.948 0 01-.686-.975l.251-.066zM463.399 255.109c-.51.044-.983.285-1.318.673a.889.889 0 00-.343.804 3.955 3.955 0 001.397 2.464 1.999 1.999 0 001.74.343 5.4 5.4 0 001.463-.962 11.76 11.76 0 001.173-.962 2.321 2.321 0 001.028-2.28 2.487 2.487 0 00-1.726-1.846 3.228 3.228 0 00-1.727.159c-.685.184-1.173.184-1.687 1.607zM459.51 257.89c.419.155.798.402 1.107.725-.079.211.132.395 0 .62-.132.224-.725.079-.962 0a1.315 1.315 0 01-.738-.673c0-.118-.29-.632 0-.579l.593-.093zM413.219 275.023c-.422.475-.896.989-.593 1.727a1.521 1.521 0 001.687.659c.33 0 .699-.132.844-.488.145-.356.197-.791.316-1.16.277-.896 1.318-1.318.791-2.385a1.74 1.74 0 00-1.213-.936c-.857 0-1.529.791-2.03 1.489l.198 1.094zM287.646 364.483c.263-.566.579-1.607 1.555-1.963a2.754 2.754 0 011.819 0c1.463.237 2.913.698 1.951 2.148a4.645 4.645 0 01-2.637 1.516c-.87.145-2.478-.132-2.399-.87l-.289-.831zM376.089 57.184c-.33 1.318-.778 2.966.724 3.954 1.029.633 2.637 0 3.493-.698a9.327 9.327 0 002.874-5.074c.224-1.727-1.859-3.572-3.44-3.77-3.23-.395-4.956 4.732-5.141 7.144l1.49-1.556zM368.892 347.93a7.092 7.092 0 00-1.055 5.101c.132 1.067.145 2.504 1.542 2.86 3.296.83 6.71-5.272 7.593-7.288a10.562 10.562 0 001.041-5.088c-.092-.962-.804-2.846-1.951-3.242a4.751 4.751 0 00-4.402 1.516c-2.478 2.478-2.294 5.338-3.638 8.013l.87-1.872zM367.165 347.706c-.86.127-1.705.348-2.517.659-.409.238-1.055.607-1.2.989-.145.382.159.975.554 1.318a1.324 1.324 0 001.186.184c.322-.19.607-.435.844-.725a8.078 8.078 0 001.002-1.318c.168-.205.309-.431.421-.672.119-.369-.158-.461-.237-.738l-.053.303zM363.396 362.335l1.107.33c-.119.369 0 .777-.475 1.054a2.867 2.867 0 01-1.476.198c-.488-.106-.765-.382-.699-.804.066-.422.673-.738 1.239-.883l.304.105zM307.614 374.645c0 .395 0 .672.448.843a2.31 2.31 0 002.215-.474c.804-.752 1.516-2.135 1.015-2.887a1.773 1.773 0 00-2.215-.25c-.4.283-.771.605-1.107.962a2.152 2.152 0 00-.382 1.713l.026.093zM248.959 279.61c-.395.355-.593.474-.685.975a2.106 2.106 0 00.171 1.621 5.76 5.76 0 003.362 1.95 3.064 3.064 0 002.715-.514 3.955 3.955 0 001.753-2.754 2.64 2.64 0 00-1.147-2.9 8.087 8.087 0 00-3.058-1.449 2.72 2.72 0 00-2.386.738c-.659.553-1.529 1.555-.725 2.333zM257.606 283.471c0-.316 0-.698.317-.791a2.183 2.183 0 011.568.633c.29.337.449.768.448 1.212a1.32 1.32 0 01-.553.712 1.092 1.092 0 01-1.318.092c-.277-.171-.949-.527-.844-.935l.382-.923zM92.147 249.732a17.777 17.777 0 01-3.427-11.65c.093-1.779-.105-4.995 2.426-4.745 3.4.33 5.14 5.602 6.09 8.237 1.41 3.954 2.78 7.908 2.28 12.138-.686 5.786-8.305-5.733-9.056-6.8l1.687 2.82zM99.476 230.609c-.606 3.361.896 8.132 4.534 9.226 1.318.382 1.779-.422 2.465-1.648a4.722 4.722 0 00.633-3.953 12.104 12.104 0 00-1.569-2.504 8.467 8.467 0 01-.936-1.411c-.25-.54-.158-.962-.58-1.436-1.015-1.147-4.943-2.082-4.547.593v1.133zM136.541 468.955a10.778 10.778 0 014.151-5.206 22.413 22.413 0 017.118-3.163 12.107 12.107 0 017.21.554c2.228 1.186 4.205 2.952 6.314 4.322 1.911 1.252 3.835 1.951 5.509 3.612a15.18 15.18 0 013.388 5.39c1.16 3.057 2.003 7.749.698 10.859-1.186 2.834-2.86 2.874-5.694 2.821-3.954-.066-7.816-3.308-10.32-6.208a29.246 29.246 0 00-3.783-4.204c-1.806-1.423-3.691-2.741-5.589-4.033a55.132 55.132 0 01-5.391-3.4c-.725-.632-3.071-2.425-3.611-1.344zM205.054 289.27c-.25 1.45-.619 2.082.448 2.794a1.939 1.939 0 002.254 0c.804-.475 2.637-2.188 2.36-3.203-.475-2.122-5.8-2.201-5.523.369l.461.04zM304.82 357.34c-.857-3.953 3.176-9.713 7.737-12.942 6.498-4.612 16.371-5.614 23.646-4.639 6.103.804 11.112 4.033 12.338 8.409.329 1.173.105 2.398.382 3.571.224.896.461 1.41-.857 2.162-3.282 1.858-8.475 3.004-12.166 3.611a69.399 69.399 0 01-12.482 1.318c-3.533-.079-6.907-.593-10.439-.725a28.083 28.083 0 01-5.022-.435c-.831-.158-2.9.132-3.137-.33zM338.286 332.972c.606.751.633 1.186 1.832 1.318a4.973 4.973 0 002.636-.778c.963-.553 2.294-1.871 1.819-2.635-.843-1.437-6.59-.58-5.997 1.318l-.29.777zM428.575 256.533a8.113 8.113 0 011.173-3.058 2.518 2.518 0 011.911-.356 3.88 3.88 0 013.005 1.74 5.436 5.436 0 011.318 1.937c.91 4.152-6.406 2.359-7.368-.263h-.039z" fill="#C4B0FF"/></g><path style="mix-blend-mode:screen" d="M454.916 528.005c58.817-37.654 91.749-91.211 73.556-119.623-18.194-28.412-80.623-20.92-139.441 16.734-58.817 37.654-91.749 91.211-73.556 119.623 18.194 28.412 80.623 20.92 139.441-16.734z" fill="url(#paint2_radial_110_3490)"/></g><path d="M582.013 432.573c10.754-1.522 21.584-6.119 32.466-15.704 24.268-21.373 19.638-57.973 1.431-79.763-18.611-22.203-56.388-35.345-101.621.711-76.614 61.071-108.493 38.815-108.804 38.569l-5.564 7.19c1.477 1.171 37.014 27.531 120.092-38.663 40.082-31.891 72.243-21.969 88.98-1.985 15.466 18.508 19.686 49.385-.462 67.112-25.006 22.001-49.922 13.551-76.299 4.619-10.611-3.604-21.582-7.322-32.638-8.999-39.483-5.988-64.105 17.56-65.136 18.561l6.356 6.497a71.598 71.598 0 0157.418-16.062c10.25 1.543 20.845 5.135 31.092 8.61 17.181 5.861 34.833 11.834 52.689 9.307z" fill="#CAB3DA"/><path fill-rule="evenodd" clip-rule="evenodd" d="M525.546 517.354s22.627 20.254 39.771 10.362l-39.771-10.362z" fill="#CAB3DA"/><path fill-rule="evenodd" clip-rule="evenodd" d="M212.762 349.467c8.982 16.667 52.068 32.41 73.976 26.053.978-.279 1.94-.614 2.88-1.001 12.927-5.473 20.84-20.736 24.734-30.657a79.313 79.313 0 003.033-8.984l-5.615-44.74s-.567.191-1.532.59a78.16 78.16 0 00-16.212 8.973c-8.325 6.201-38.376 16.844-54.913 15.528-16.537-1.316-23.008-5.602-26.783-4.488-3.775 1.114-5.899 8.038-5.899 8.038s-3.137 13.125 6.331 30.688z" fill="url(#paint3_radial_110_3490)"/><path fill-rule="evenodd" clip-rule="evenodd" d="M206.431 318.779s6.409-3.46 9.71.364c3.301 3.824 10.489 28.872-3.368 30.309-13.857 1.437-6.329-30.675-6.329-30.675l-.013.002z" fill="#684D73"/><path fill-rule="evenodd" clip-rule="evenodd" d="M210.151 319.812s4.09 13.398-2.101 26.1c0 0-9.084-15.921 2.101-26.1z" fill="#53345F"/><path fill-rule="evenodd" clip-rule="evenodd" d="M177.826 323.256a45.706 45.706 0 0020.242 16.273 50.2 50.2 0 0011.199 3.479 26.928 26.928 0 001.893-17.82s-.94-1.578-2.491-3.856c-3.471-5.028-9.626-13.512-14.455-16.043l.57 6.363s-6.379-8.218-20.122-5.679c.014-.002-6.491 2.685 3.164 17.283z" fill="#D9D9D9"/><path d="M256.825 313.632s9.576 10.235 13.826 33.919c4.249 23.683-11.773 27.566-11.773 27.566s10.084 2.422 17.041 1.851c0 0 37.241-15.013-4.463-67.201l-14.631 3.865z" fill="url(#paint4_linear_110_3490)"/><path style="mix-blend-mode:multiply" fill-rule="evenodd" clip-rule="evenodd" d="M314.352 343.862c1.062 3.41 2.36 6.924 3.737 10.607l10.216-26.283-13.953-38.717-4.026.805c-.048.145-.07.286-.116.444a78.18 78.18 0 00-16.212 8.973s34.116 25.196-4.393 74.733c12.941-5.378 20.853-20.641 24.747-30.562z" fill="url(#paint5_linear_110_3490)"/><path fill-rule="evenodd" clip-rule="evenodd" d="M364.587 554.764s5.754-15.592 43.541-17.202c.005.041-12.025 20.33-43.541 17.202zM528.776 477.199s-23.97 3.393-32.477 32.194c0 0 11.011 2.829 22.943-6.656 11.931-9.485 9.534-25.538 9.534-25.538z" fill="#311745"/><path fill-rule="evenodd" clip-rule="evenodd" d="M392.296 559.853l16.421-8.865s-.904-4.44-2.089-11.543c-3.038-17.95-7.926-52.775-4.918-75.195l-68.904-29.792s.319 4.301.905 11.076c1.805 19.669.219 60.033 6.663 75.044 8.685 20.117 51.922 39.275 51.922 39.275z" fill="url(#paint6_radial_110_3490)"/><path fill-rule="evenodd" clip-rule="evenodd" d="M332.802 434.431a120.434 120.434 0 0066.038 30.598l2.87-.779 15.329-4.198c-.004-.05-.011-.1-.021-.149l-.044-.311a1.56 1.56 0 01-.035-.244 2.503 2.503 0 01-.044-.311c-.849-6.972-4.875-50.916 21.574-93.819a113.01 113.01 0 01-10.707-10.724 223.825 223.825 0 00-2.117-2.377c-3.413-3.836-7.547-8.673-12.443-14.796-10.703-13.222-28.559-34.676-40.856-49.41-3.69-4.432-6.894-8.255-9.258-11.108-.881-1.062-1.663-2-2.305-2.737l-1.962-2.358s-29.689 19.919-48.007 16.648c0 0-.202.622-.499 1.837-.047.158-.068.299-.117.444-1.472 6.362-4.507 25.475 4.11 53.107 1.076 3.408 2.36 6.924 3.748 10.591a112.465 112.465 0 001.603 3.913 235.53 235.53 0 009.569 65.746 190.212 190.212 0 003.574 10.437z" fill="#CAB3DA"/><path fill-rule="evenodd" clip-rule="evenodd" d="M375.717 315.913c.742.958 1.541 1.921 2.359 2.923 12.892 15.533 31.457 29.905 49.724 35.736 11.196 3.548 22.237 3.862 31.786-.719 21.326-10.277 28.205-30.113 29.791-35.87.037-.184.085-.366.143-.545.025-.16.063-.317.113-.471.097-.387.138-.585.138-.585s6.524-5.96 2.533-13.785c-3.991-7.824-13.132-18.493-13.132-18.493l-4.396.429s-3.489-5.15-9.491-4.176c-6.003.974-18.105 8.082-37.131 6.636-16.734-1.247-42.471-7.607-51.187-10.692a15.178 15.178 0 01-2.651-1.087 26.808 26.808 0 00-9.503-2.891l-2.391 1.138-1.578.748-4.846 2.314s-1.35 12.982 19.719 39.39z" fill="url(#paint7_radial_110_3490)"/><path fill-rule="evenodd" clip-rule="evenodd" d="M417.038 460.052s39.858 25.983 49.554 33.166c9.695 7.182 36.457 16.102 49.604 16.076.32.011.642.002.962-.025 12.354-.452 16.249-9.2 16.249-9.2s-.673-2.416-1.75-6.223c-1.449-5.066-3.613-12.556-5.964-20.005-3.087-9.912-6.484-19.78-8.763-23.597-3.877-6.53-44.855-49.782-65.983-71.932-7.481-7.813-12.465-13-12.465-13-30.762 30.958-22.911 86.033-21.576 93.806.008.105.023.209.044.311.006.082.018.164.035.244l.038.27a.985.985 0 01.015.109z" fill="url(#paint8_radial_110_3490)"/><path fill-rule="evenodd" clip-rule="evenodd" d="M353.272 277.64s-14.401 14.457-20.642 17.355c-6.24 2.898-21.77-6.508-21.77-6.508s15.639-.158 42.412-10.847zM364.798 272.311s7.163 52.648 53.527 79.463c0 0-41.119-17.54-65.053-74.134l11.526-5.329z" fill="#53345F"/><path fill-rule="evenodd" clip-rule="evenodd" d="M314.346 289.525s-1.785 40.613 5.349 68.883c0 0-15.659-30.209-13.268-65.954l4.433-3.967 3.486 1.038zM446.146 373.252s-21.426 20.584-22.635 91.002l-6.432-4.208s-12.947-66.414 21.426-94.764l7.641 7.97zM329.299 424.205s36.495 38.299 72.396 40.033l-.472 4.372s-36.03 3.196-67.772-26.282l-4.152-18.123z" fill="#53345F"/><path fill-rule="evenodd" clip-rule="evenodd" d="M489.781 316.352s6.525-5.96 2.533-13.784c-3.991-7.824-13.132-18.493-13.132-18.493l-4.396.429s-11.674 22.612 14.995 31.848z" fill="#684D73"/><path fill-rule="evenodd" clip-rule="evenodd" d="M490.823 308.699s-16.281-11.494-11.687-24.563c.046-.061 16.32 18.305 11.687 24.563z" fill="#53345F"/><path fill-rule="evenodd" clip-rule="evenodd" d="M479.245 293.297s-2.487-11.819 6.12-19.053l2.653 4.896s9.735-14.763 23.28-10.995c0 0 5.058 23.444-22.674 38.864a25.355 25.355 0 01-9.379-13.712z" fill="#D9D9D9"/><path d="M504.774 435.724s8.001 15.288-9.708 34.353c-17.709 19.064-37.238 16.986-37.238 16.986s10.726 8.223 17.809 11.277c7.083 3.054 38.159-14.674 46.004-36.938 0 0-2.471-8.688-5.791-12.744-3.32-4.055-11.076-12.934-11.076-12.934z" fill="url(#paint9_linear_110_3490)"/><path d="M401.07 491.702s-11.024 16.38-26.575 26.709a45.43 45.43 0 01-31.574 7.091s7.434 9.917 15.467 14.714c0 0 20.018-4.214 29.455-12.214 9.437-8.001 14.419-20.669 14.419-20.669l-1.192-15.631z" fill="url(#paint10_linear_110_3490)"/><path d="M423.203 286.521s-22.239 41.452 21.737 70.702a43.863 43.863 0 01-15.948-2.323c-12.035-3.816-48.636-49.689-19.203-70.634l13.414 2.255z" fill="url(#paint11_linear_110_3490)"/><path d="M401.449 464.549l.499-.567c-.299-.262-29.79-26.609-42.019-49.246-10.59-19.64-12.88-30.851-16.045-46.381-1.19-5.875-2.546-12.527-4.541-20.386a357.29 357.29 0 01-9.075-51.439l-.758.108a360.405 360.405 0 009.106 51.558c1.978 7.833 3.334 14.486 4.536 20.345 3.174 15.598 5.466 26.823 16.116 46.592 12.292 22.697 41.81 49.137 42.181 49.416z" fill="#53345F"/><path style="mix-blend-mode:multiply" fill-rule="evenodd" clip-rule="evenodd" d="M405.296 540.171l1.278-.719c-3.038-17.949-7.926-52.774-4.918-75.195l15.383-4.205s39.857 25.983 49.567 33.164c9.709 7.18 36.444 16.104 49.59 16.078.321.006.641-.008.96-.039l14.492-15.477c-1.433-5.054-3.611-12.542-5.949-19.993l-1.571-.178s-13.969 22.675-34.017 24.34c-20.047 1.665-60.246-39.89-61.025-48.514-2.894-32.238 12.803-58.786 21.858-71.148l-12.467-13.013a113.246 113.246 0 01-10.708-10.723c11.196 3.548 22.238 3.861 31.798-.735 21.313-10.275 28.193-30.097 29.777-35.868-1.892 6.132-10.799 28.794-43.617 35.771a35.996 35.996 0 01-20.041-1.606c-28.498-10.164-49.879-50.961-52.508-59.985a20.726 20.726 0 01-.783-4.167c-.618-8.067 4.541-11.682 4.541-11.682a16.957 16.957 0 01-2.62-1.064 26.85 26.85 0 00-9.502-2.891l-2.392 1.139c.192.87.417 2.066.728 3.485a211.801 211.801 0 0012.584 38.992 118.207 118.207 0 0016.398 27.525c22.434 27.084 29.027 31.16 29.027 31.16s-6.53 51.343-18.211 65.525c-11.68 14.183-51.901.448-62.764-7.77-5.17-3.863-8.64-6.545-10.91-8.252a175.598 175.598 0 003.526 10.291s.319 4.301.906 11.076c10.892 8.71 47.898 39.016 56.04 52.283 9.554 15.633 15.55 42.395 15.55 42.395z" fill="url(#paint12_linear_110_3490)"/><path fill-rule="evenodd" clip-rule="evenodd" d="M364.796 272.297s-2.706 29.622-26.602 50.598c-23.896 20.975-39.055-26.65-39.055-26.65l7.287-3.791 3.935-2.13 54.435-18.027z" fill="#53345F" opacity=".5"/><path fill-rule="evenodd" clip-rule="evenodd" d="M224.484 267.93c.235.297.455.584.715.864 3.301 3.824 9.015 7.734 16.243 11.127 0 0 .431.215 1.249.54a115.982 115.982 0 0050.268 9.65c30.015-1.145 72.936-11.705 97.388-36.457 24.452-24.752 25.037-84.954 14.161-102.125a171.567 171.567 0 00-12.274-17.208c-14.4-17.707-37.886-38.377-71.769-40.287-25.608-1.453-58.176 7.393-82.07 19.22a119.424 119.424 0 00-19.33 11.706 53.63 53.63 0 00-8.823 8.244l-.908 1.191a20.67 20.67 0 00-1.639 2.454c-25.188 44.215.734 110.365 16.789 131.081z" fill="url(#paint13_linear_110_3490)"/><path d="M227.891 262.949c.231.271.422.547.665.803 7.407 5.436 32.109 18.815 68.07 4.604 44.222-17.464 44.36-57.816 44.36-57.816l8.72-2.835a177.769 177.769 0 01-2.273-16.057c-2.641-27.623 3-41.972 2.135-45.837-1.012-4.617-15.841-29.245-50.716-35.14-23.11-3.89-43.656 1.378-57.918 7.26a110.738 110.738 0 00-18.122 10.982 48.861 48.861 0 00-8.275 7.726l-.85 1.114a18.138 18.138 0 00-1.535 2.315c-9.816 17.216-11.351 37.951-8.734 57.712 3.679 27.835 15.659 53.791 24.473 65.169z" fill="url(#paint14_linear_110_3490)"/><path style="mix-blend-mode:multiply" fill-rule="evenodd" clip-rule="evenodd" d="M242.692 280.461a115.98 115.98 0 0050.267 9.65c30.015-1.145 72.937-11.705 97.388-36.457 24.452-24.752 25.037-84.954 14.162-102.125a171.567 171.567 0 00-12.274-17.208c-4.606-3.294-9.804-4.821-15.634-2.727-21.388 7.692-14.774 80.246-14.774 80.246l-10.903.963s.227 42.246-40.997 63.439c-36.011 18.537-61.486 6.524-67.235 4.219z" fill="url(#paint15_linear_110_3490)"/><path fill-rule="evenodd" clip-rule="evenodd" d="M400.449 238.95c-9.05 11.119-28.873 10.476-37.222-25.791-8.348-36.267 6.299-75.402 6.299-75.402-29.835 8.362-15.17 71.318-15.17 71.318 1.033 2.613 2.023 5.026 3.046 7.282l.104.247c21.387 47.861 41.244 24.477 42.943 22.346z" fill="url(#paint16_linear_110_3490)"/><path fill-rule="evenodd" clip-rule="evenodd" d="M406.915 156.542c-5.215-11.984-14.427-19.166-21.543-17.772-7.116 1.394-20.877 36.554-10.765 72.116 10.111 35.562 31.197 20.076 33.528 5.547l1.471-7.935s-13.778 25.78-26.579 5.142c-14.617-23.526.831-59.243 12.34-56.705 11.508 2.538 15.663 22.923 15.663 22.923s-.643-15.363-4.115-23.316z" fill="#53345F"/><path fill-rule="evenodd" clip-rule="evenodd" d="M413.506 554.504l-3.362-4.257-1.943-12.654s-24.366 16.392-43.555 17.205a51.15 51.15 0 0026.107 7.991s-13.755 9.371-10.475 25.133l33.228-33.418zM496.387 509.339l26.588 3.301 2.581 4.781s17.713 14.299 39.769 10.349c0 0-6.502-18.052-29.183-23.976l-7.347-26.557a46.208 46.208 0 01-9.381 21.46c-7.814 9.813-21.792 10.591-23.027 10.642z" fill="#D9D9D9"/><path fill-rule="evenodd" clip-rule="evenodd" d="M413.506 554.504l2.935 1.82-34.348 33.798-1.862-2.234 33.275-33.384z" fill="#CAB3DA"/><path style="mix-blend-mode:multiply" fill-rule="evenodd" clip-rule="evenodd" d="M364.587 554.765a51.143 51.143 0 0026.106 7.991s15.53-7.262 22.813-8.252l-3.362-4.257-1.943-12.654s-24.422 16.387-43.614 17.172z" fill="url(#paint17_linear_110_3490)"/><path style="mix-blend-mode:multiply" fill-rule="evenodd" clip-rule="evenodd" d="M496.388 509.339l26.587 3.301a33.637 33.637 0 0013.167-8.846l-7.347-26.557a46.216 46.216 0 01-9.38 21.46c-7.815 9.813-21.793 10.591-23.027 10.642z" fill="url(#paint18_linear_110_3490)"/><path d="M333.909 147.973s-1.91-10.769-3.558-13.833a46.215 46.215 0 00-16.976-5.876l-3.249 20.136s18.477-1.166 23.783-.427z" fill="#fff"/><path d="M227.967 263.587c.218.272.422.547.666.802 7.393 5.439 32.064 18.794 67.987 4.603 44.167-17.457 44.259-57.747 44.259-57.747l8.692-2.831a188.204 188.204 0 01-2.271-16.043s-86.1-61.206-143.776 6.057c3.668 27.864 15.632 53.794 24.443 65.159z" fill="url(#paint19_linear_110_3490)"/><path d="M334.393 219.035s-.851 9.586-4.171 15.768l-5.824-2.156s2.736-8.942 3.71-14.241l6.285.629z" fill="#fff"/><path style="mix-blend-mode:multiply" fill-rule="evenodd" clip-rule="evenodd" d="M508.768 286.137s-7.558 11.143-16.782 12.945c-9.224 1.803-12.976-7.449-12.976-7.449s.055 7.995 9.56 15.384c0 0 15.757-8.385 20.198-20.88z" fill="url(#paint20_linear_110_3490)"/><path style="mix-blend-mode:multiply" fill-rule="evenodd" clip-rule="evenodd" d="M198.081 339.527a50.224 50.224 0 0011.2 3.479 26.928 26.928 0 001.893-17.82s-.941-1.578-2.491-3.856c0 0 1.821 9.94-10.602 18.197z" fill="url(#paint21_linear_110_3490)"/><path fill-rule="evenodd" clip-rule="evenodd" d="M347.918 335.151a14.844 14.844 0 008.837 7.19 14.86 14.86 0 0011.33-1.187 14.823 14.823 0 007.196-8.835 14.826 14.826 0 00-1.192-11.332 14.856 14.856 0 00-8.837-7.19 14.856 14.856 0 00-11.33 1.186 14.844 14.844 0 00-7.19 8.837 14.86 14.86 0 001.186 11.331z" fill="#684D73"/><path fill-rule="evenodd" clip-rule="evenodd" d="M352.777 332.531a9.315 9.315 0 0017.114-1.809 9.305 9.305 0 00-.753-7.089 9.32 9.32 0 00-12.629-3.731 9.317 9.317 0 00-3.732 12.629z" fill="url(#paint22_linear_110_3490)"/><path fill-rule="evenodd" clip-rule="evenodd" d="M403.726 283.248s-11.54 17.419-24.238-6.104c0 0 17.532 4.639 24.238 6.104z" fill="#684D73"/><path d="M371.19 487.074a221.269 221.269 0 0029.709-6.524l-.227-.727c-.489.152-48.9 14.635-65.206 3.546l-.422.625c7.857 5.401 22.619 4.994 36.146 3.08zM437.51 474.829l.757-.107a87.45 87.45 0 01-1.301-26.929c2.563-22.937 27.811-54.439 28.057-54.75l-.593-.482c-.245.311-25.635 31.985-28.221 55.146a88.573 88.573 0 001.301 27.122zM477.805 339.559l.596-.471c-31.844-40.53-13.037-58.273-12.853-58.437l-.494-.565c-.209.181-5.045 4.619-5.907 14.22-.85 8.814 1.814 23.835 18.658 45.253zM241.459 369.911c14.534-29.116-17.596-57.146-17.911-57.418l-.499.567c.316.286 32.006 27.937 17.74 56.504l.67.347z" fill="#53345F"/><path d="M378.113 368.808a39.61 39.61 0 006.057 8.084l5.838-3.986a17.762 17.762 0 00-7.38-7.097l-4.515 2.999zM452.532 287.254a15.42 15.42 0 01-7.161 1.468l-2.145 3.561s5.751 2.318 9.098-1.137l.208-3.892zM491.641 441.198a21.17 21.17 0 017.18 7.153l-3.723 4.404-6.492-7.36 3.035-4.197zM213.422 311.042a12.103 12.103 0 015.964 4.51l4.877.234a18.78 18.78 0 00-3.428-2.964c-1.957-1.255-7.413-1.78-7.413-1.78zM343.913 496.84s-1.045 12.112.992 17.536l-5.034.602a36.005 36.005 0 01-1.682-16.955l5.724-1.183zM316.974 107.292s-29.569-6.329-47.441-3.137c0 0 62.321-17.487 47.441 3.137zM362.711 164.869l-11.044-1.307-.9 11.967 10.522.345 1.422-11.005z" fill="#fff"/><g clip-path="url(#clip1_110_3490)"><path style="mix-blend-mode:screen" d="M624.797 111.23l39.763 19.951 7.303-16.95-37.406-20.562s-7.932 12.328-9.66 17.561z" fill="url(#paint23_linear_110_3490)"/><path fill-rule="evenodd" clip-rule="evenodd" d="M618.133 76.416l2.417-7.447s13.053 5.625 22.592 21.276l-.346.642-18.393-10.566-.775 1.332-5.495-5.237z" fill="url(#paint24_linear_110_3490)"/><path fill-rule="evenodd" clip-rule="evenodd" d="M601.491 107.401l-5.022 6.281s11.883 7.797 30.199 7.147l.346-.642-18.939-9.518.685-1.381-7.269-1.887z" fill="url(#paint25_linear_110_3490)"/><path fill-rule="evenodd" clip-rule="evenodd" d="M537.364 52.94c-4.727 8.78 8.782 33.786 28.847 43.157 20.064 9.37 53.515 15.691 53.515 15.691l6.166-11.188 5.945-11.305s-23.71-24.448-42.562-36.037c-18.852-11.59-47.216-9.038-51.911-.317z" fill="url(#paint26_radial_110_3490)"/><path fill-rule="evenodd" clip-rule="evenodd" d="M619.73 111.794s5.762-13.41 12.111-22.494c0 0-5.532 13.227-12.111 22.494z" fill="#31165F"/><path fill-rule="evenodd" clip-rule="evenodd" d="M539.821 69.478s2.798-14.532 14.082-23.725c0 0-13.053.849-16.539 7.188-3.137 5.703 2.457 16.537 2.457 16.537z" fill="url(#paint27_radial_110_3490)"/><path d="M554.014 45.893c-10.602 8.467-13.977 23.456-14.018 23.62l-.347-.073c.03-.152 3.44-15.28 14.147-23.825l.218.278z" fill="#53345F"/><path fill-rule="evenodd" clip-rule="evenodd" d="M536.459 56.266l3.868-6.399s-4.145 2.066-3.868 6.4z" fill="#53345F"/><path fill-rule="evenodd" clip-rule="evenodd" d="M536.641 55.183a15.95 15.95 0 011.896-3.75s-3.481-.941-4.196.128c-.714 1.07 2.3 3.622 2.3 3.622z" fill="url(#paint28_linear_110_3490)"/><path style="mix-blend-mode:multiply" opacity=".5" fill-rule="evenodd" clip-rule="evenodd" d="M598.036 106.824s4.065-22.287 16.125-34.329c7.12 6.246 17.678 16.808 17.678 16.808s-5.823 7.953-12.11 22.493c.002-.002-11.263-1.562-21.693-4.972z" fill="url(#paint29_radial_110_3490)"/><path style="mix-blend-mode:multiply" opacity=".5" fill-rule="evenodd" clip-rule="evenodd" d="M551.035 61.249c-3.65 8.24 2.641 18.918 10.588 23.663 7.946 4.744 16.975-.104 21.073-8.257 4.098-8.153 2.226-17.755-7.192-21.623-8.506-3.508-20.413-2.942-24.469 6.217z" fill="url(#paint30_radial_110_3490)"/><path fill-rule="evenodd" clip-rule="evenodd" d="M549.738 60.55c-3.65 8.242 2.641 18.918 10.587 23.663 7.947 4.745 16.976-.104 21.077-8.255 4.1-8.15 2.225-17.755-7.195-21.624-8.503-3.507-20.41-2.94-24.469 6.217z" fill="#31165F"/><path fill-rule="evenodd" clip-rule="evenodd" d="M548.834 60.064c-3.65 8.24 2.641 18.917 10.587 23.662 7.946 4.745 16.976-.104 21.076-8.255 4.101-8.15 2.226-17.755-7.194-21.624-8.504-3.507-20.41-2.94-24.469 6.217z" fill="url(#paint31_radial_110_3490)"/><path fill-rule="evenodd" clip-rule="evenodd" d="M552.022 61.102c-3.393 7.33 2.023 14.839 8.236 18.552 6.213 3.713 13.27-.12 16.492-6.525 3.222-6.404 1.774-13.923-5.574-16.95-6.664-2.746-15.623-2.74-19.154 4.923z" fill="#A6345F"/><path fill-rule="evenodd" clip-rule="evenodd" d="M578.027 65.248a13.376 13.376 0 01-1.427 7.822c-3.066 6.095-10.463 10.077-16.367 6.548a18.73 18.73 0 01-5.235-4.641c-2.83-3.674-4.094-8.44-1.925-13.349 3.183-7.267 11.901-7.293 18.227-4.69 4.06 1.694 6.221 4.815 6.727 8.31z" fill="url(#paint32_linear_110_3490)"/><path d="M581.415 75.94l-.085.158 22.612 12.174.085-.158-22.612-12.174z" fill="#53345F"/><path d="M598.111 106.835l-.174-.036c5.472-25.057 16.046-34.279 16.15-34.37l.116.136c-.096.098-10.621 9.288-16.092 34.27zM589.665 104.486l-.177.017c-.01-.089-.7-9.125 5.075-21.375l.155.084c-5.765 12.197-5.06 21.186-5.053 21.274z" fill="#53345F"/><path fill-rule="evenodd" clip-rule="evenodd" d="M621.659 94.334l-9.928-4.937.778-3.062 10.289 5.882-1.139 2.117z" fill="#31165F"/><path fill-rule="evenodd" clip-rule="evenodd" d="M620.929 110.041s4.33-10.27 10.327-19.39l4.053 2.944-10.293 17.968-4.087-1.522z" fill="url(#paint33_radial_110_3490)"/><path opacity=".5" fill-rule="evenodd" clip-rule="evenodd" d="M622.997 110.804a19.392 19.392 0 012.464-8.591c2.452-4.337 8.914-9.306 8.914-9.306l-3.119-2.256s-6.625 9.894-10.327 19.39l2.068.763z" fill="#31165F"/><path d="M558.091 58.731a18.683 18.683 0 016.03-.814l-.052-1.996s-3.419-.331-5.58 1.326l-.398 1.484zM563.405 78.494l2.874-.078.056 1.656-2.322-.08-.608-1.498z" fill="#fff"/><path style="mix-blend-mode:multiply" opacity=".5" fill-rule="evenodd" clip-rule="evenodd" d="M542.403 74.148s.35-15.849 15.394-28.653l-3.894.258s-9.37 7.02-14.082 23.725l2.582 4.67z" fill="url(#paint34_radial_110_3490)"/><path fill-rule="evenodd" clip-rule="evenodd" d="M595.797 84.533a.78.78 0 01.382.473.793.793 0 01-.066.605.794.794 0 01-1.074.329.796.796 0 01-.316-1.078.79.79 0 01.777-.419c.104.01.205.04.297.09z" fill="url(#paint35_linear_110_3490)"/><path fill-rule="evenodd" clip-rule="evenodd" d="M595.721 84.674a.643.643 0 01-.608 1.13.643.643 0 01.608-1.13z" fill="url(#paint36_radial_110_3490)"/><path fill-rule="evenodd" clip-rule="evenodd" d="M592.364 82.684a.798.798 0 01-.162 1.463.8.8 0 01-.606-.057.796.796 0 01-.307-1.074.777.777 0 01.468-.39.794.794 0 01.607.058z" fill="url(#paint37_linear_110_3490)"/><path fill-rule="evenodd" clip-rule="evenodd" d="M592.288 82.825a.64.64 0 01-.609 1.13.624.624 0 01-.241-.858.625.625 0 01.85-.272z" fill="url(#paint38_radial_110_3490)"/><path d="M563.052 82.758a.795.795 0 00-.316-1.078.794.794 0 00-1.074.33.794.794 0 00.316 1.077.794.794 0 001.074-.33z" fill="#31165F"/><path fill-rule="evenodd" clip-rule="evenodd" d="M562.658 81.817a.643.643 0 01-.608 1.13.642.642 0 01-.242-.859.638.638 0 01.368-.315.621.621 0 01.482.044z" fill="url(#paint39_radial_110_3490)"/><path fill-rule="evenodd" clip-rule="evenodd" d="M553.552 75.143a.794.794 0 01.317 1.078.808.808 0 01-.469.389.798.798 0 01-.607-.057.798.798 0 01-.314-1.08.795.795 0 011.073-.33z" fill="#31165F"/><path fill-rule="evenodd" clip-rule="evenodd" d="M553.472 75.293a.641.641 0 01-.609 1.13.641.641 0 01.609-1.13z" fill="url(#paint40_radial_110_3490)"/><path fill-rule="evenodd" clip-rule="evenodd" d="M574.056 79.278a.794.794 0 01.316 1.078.797.797 0 01-1.074.33.795.795 0 01-.316-1.078.8.8 0 01.468-.388.794.794 0 01.606.058z" fill="#31165F"/><path fill-rule="evenodd" clip-rule="evenodd" d="M573.975 79.428a.643.643 0 01-.608 1.13.643.643 0 01.608-1.13z" fill="url(#paint41_radial_110_3490)"/><path fill-rule="evenodd" clip-rule="evenodd" d="M580.762 68.827a.798.798 0 01-.152 1.465.8.8 0 01-.606-.058.795.795 0 01-.316-1.078.79.79 0 01.777-.419c.104.01.205.04.297.09z" fill="#31165F"/><path fill-rule="evenodd" clip-rule="evenodd" d="M580.681 68.977a.64.64 0 01-.609 1.13.624.624 0 01-.241-.859.638.638 0 01.368-.315.623.623 0 01.482.044z" fill="url(#paint42_radial_110_3490)"/><path d="M578.561 59.029a.794.794 0 00-.316-1.078.794.794 0 00-1.074.33.794.794 0 00.316 1.077.794.794 0 001.074-.329z" fill="#31165F"/><path fill-rule="evenodd" clip-rule="evenodd" d="M578.168 58.092a.643.643 0 01-.608 1.13.64.64 0 01.608-1.13z" fill="url(#paint43_radial_110_3490)"/><path fill-rule="evenodd" clip-rule="evenodd" d="M565.307 52.444a.798.798 0 01.382.473.786.786 0 01-.065.605.797.797 0 01-1.074.329.796.796 0 01-.318-1.075.79.79 0 011.075-.332z" fill="#31165F"/><path fill-rule="evenodd" clip-rule="evenodd" d="M565.231 52.585a.643.643 0 01-.608 1.13.643.643 0 01.608-1.13z" fill="url(#paint44_radial_110_3490)"/><path fill-rule="evenodd" clip-rule="evenodd" d="M555.963 54.568a.805.805 0 01.382.473.806.806 0 01-.535.99.796.796 0 01-.605-.056.794.794 0 01-.316-1.078.785.785 0 01.777-.42.8.8 0 01.297.09z" fill="#31165F"/><path fill-rule="evenodd" clip-rule="evenodd" d="M555.882 54.717a.643.643 0 01-.608 1.13.643.643 0 01.608-1.13z" fill="url(#paint45_radial_110_3490)"/><path fill-rule="evenodd" clip-rule="evenodd" d="M549.94 63.371a.797.797 0 01.121 1.319.797.797 0 01-.879.088.794.794 0 01-.411-.782.799.799 0 011.169-.624z" fill="#31165F"/><path fill-rule="evenodd" clip-rule="evenodd" d="M549.859 63.521a.63.63 0 01.302.379.61.61 0 01-.061.48.62.62 0 01-.849.271.643.643 0 01.608-1.13z" fill="url(#paint46_radial_110_3490)"/><path fill-rule="evenodd" clip-rule="evenodd" d="M627.007 120.198l.279-.517-18.966-9.544-.257.525 18.944 9.536zM624.405 80.31l-.297.504 18.498 10.412.189-.35-18.39-10.565z" fill="#6F2561"/><path fill-rule="evenodd" clip-rule="evenodd" d="M608.251 84.772l.998-1.854 28.331 17.644-.695 1.292-28.634-17.082z" fill="url(#paint47_linear_110_3490)"/><path fill-rule="evenodd" clip-rule="evenodd" d="M608.251 84.772l5.796 4.785 22.838 12.297-28.634-17.082z" fill="#FF4C61"/><path opacity=".5" fill-rule="evenodd" clip-rule="evenodd" d="M610.12 83.46l21.721 5.84-2.656 4.351 4.626 2.564-.806 1.498L610.12 83.46z" fill="#31165F"/><path d="M547.243 78.576s-2.117-.902-2.663-2.866l.618-1.027a38.657 38.657 0 012.331 3.362l-.286.531zM609.205 69.838l-7.679-6.635.29-.54 7.733 6.537-.344.638z" fill="#fff"/><path fill-rule="evenodd" clip-rule="evenodd" d="M571.382 46.577s1.094-3.636 3.606.796l-3.606-.796z" fill="url(#paint48_linear_110_3490)"/><path fill-rule="evenodd" clip-rule="evenodd" d="M550.412 84.482s-.745 3.517 2.528 2.495l-2.528-2.495z" fill="url(#paint49_linear_110_3490)"/><path fill-rule="evenodd" clip-rule="evenodd" d="M621.121 108.446s-30.394-5.459-51.464-12.535l-.041 1.043s31.745 11.966 50.317 14.369l1.188-2.877z" fill="#fff" opacity=".5"/><path fill-rule="evenodd" clip-rule="evenodd" d="M599.705 61.84l-4.853-3.87.277-.515 4.853 3.87-.277.515zM590.069 100.65s.546-6.938 2.911-12.55c0 0-1.688 5.951-2.911 12.55zM583.615 76.891l19.892 10.538s-6.997-4.219-19.892-10.538zM599.4 102.328s3.312-15.44 12.686-26.9c.014.007-7.403 8.239-12.686 26.9zM548.96 71.325s1.703-1.43-1.08-4.303a18.202 18.202 0 001.08 4.303zM581.257 73.825s2.126-4.49.227-12.183c-.014-.008 2.586 5.394-.227 12.182zM576.569 73.433s4.08-2.724 1.763-7.336c.008.004.706 2.994-1.763 7.336z" fill="#fff"/><g style="mix-blend-mode:soft-light" opacity=".36"><path fill-rule="evenodd" clip-rule="evenodd" d="M584.657 78.746c.031.308.009.858.39.968.179.03.359.05.54.061.158.03.312.077.461.139.244.101.511.13.771.084.167-.046.116-.215.042-.342a.898.898 0 00-.287-.367 2.929 2.929 0 01-.501-.35c-.059-.053-.092-.14-.156-.196a1.45 1.45 0 00-.283-.152.843.843 0 00-.977.155zM586.999 81.195a.24.24 0 01-.205-.176c.183-.339.914-.098.87.286-.048.448-.569.226-.726-.004l.061-.106zM587.874 89.696c.01-.22-.027-.43.123-.6a.875.875 0 01.478-.272c.227-.035.46-.02.681.042.111.004.218.04.308.104.337.316.366.926.289 1.34a3.188 3.188 0 01-.177.707c-.08.15-.127.318-.181.479a1.019 1.019 0 01-.158.388 1.185 1.185 0 01-.313.196 1.006 1.006 0 01-.942-.018c-.501-.296-.577-1.135-.56-1.669.018-.431.101-1.094.452-.697zM588.052 87.7c.119.126.141.192.298.124a.408.408 0 00.184-.288c.038-.212-.11-.587-.362-.559-.127.02-.38.09-.467.19a.601.601 0 00.234.738l.113-.205zM596.699 83.622a.762.762 0 00.22.155l.596.32c.373.202.718.46 1.1.666.276.14.563.256.858.349.151.055.304.102.46.142.016-.032-.057-.078-.08-.11-.079-.104-.18-.194-.25-.301a11.822 11.822 0 00-.498-.727.696.696 0 01-.102-.128c-.028-.063-.044-.141-.068-.205a1.194 1.194 0 00-.184-.336 2.01 2.01 0 00-.722-.501c-.087-.047-.183-.066-.269-.109a2.576 2.576 0 00-.292-.135 1.732 1.732 0 00-.67-.069c-.26.01-.679-.045-.875.184-.096.11.017.232.108.307.091.074.245.16.364.25.12.09.341.29.304.248zM595.079 82.4c-.063-.107-.211-.285-.085-.41.126-.126.306-.021.409.052.239.18-.202.376-.371.256l.047.102zM598.097 80.708a.54.54 0 00.267.235.32.32 0 00.401-.19c.129-.24.168-.433-.038-.606a.712.712 0 00-.582-.077.384.384 0 00-.186.156c-.079.147-.015.272.063.398l.075.084zM608.478 79.313c.014-.456.083-.908.204-1.348.144-.37.308-.732.493-1.083.183-.518.329-1.048.438-1.587.098-.472.31-.914.619-1.285a1.454 1.454 0 011.026-.504c.238.01.473.06.694.147.099.053.2.082.299.121a.918.918 0 01.188.065c.093.05.072.09.024.177a.844.844 0 01-.343.38 2.6 2.6 0 00-.648.628c-.182.23-.372.441-.539.683l-.498.702c-.146.198-.299.393-.444.595-.146.203-.263.413-.392.62-.13.207-.192.356-.288.534-.061.113-.138.21-.199.323-.047.087-.1.17-.16.25a2.946 2.946 0 00-.135.25 2.156 2.156 0 01-.339.332zM608.165 76.178c.016.078.016.173.076.223a.425.425 0 00.11.06c.178.048.331-.216.401-.346.219-.372.289-.814.196-1.236a.964.964 0 00-.543-.657c-.372-.109-.753.153-.991.425-.238.273-.456.659-.352 1.006a.566.566 0 00.197.31c.091.044.183.082.278.114.119.064.187.18.337.181a.485.485 0 00.291-.08zM609.357 74.024a.184.184 0 01-.104-.046.18.18 0 01-.058-.1.196.196 0 01.027-.24.276.276 0 01.206-.089.27.27 0 01.202.097.327.327 0 01.044.153.31.31 0 01-.035.155.252.252 0 01-.285.138l.003-.068zM603.099 67.057a.539.539 0 00.069.402.196.196 0 00.172.125c.256-.002.501-.096.693-.264a.633.633 0 00.201-.454 1.47 1.47 0 00-.131-.434 2.72 2.72 0 00-.168-.365.516.516 0 00-.481-.372.73.73 0 00-.569.38c-.063.149-.089.31-.076.472.011.17-.008.313.29.51zM603.508 68.221a.961.961 0 01.252-.265c.048.026.105-.02.15.033.044.053-.032.195-.068.255a.37.37 0 01-.211.168c-.033.007-.172.049-.143-.026l.02-.165zM604.507 81.367c.085.133.18.283.381.234a.463.463 0 00.278-.437c.009-.09.016-.192-.06-.247-.075-.055-.172-.093-.257-.138-.2-.108-.232-.395-.523-.315a.496.496 0 00-.309.282c-.071.228.085.447.219.61l.271.011zM603.087 101.761a1.43 1.43 0 00.001.784l.088.048a.642.642 0 00.469.252c.584.005.789-.504 1.022-.944.233-.439.625-1.038-.134-1.166-.336-.053-.898-.18-1.229-.005-.178.093-.17.193-.195.361a1.851 1.851 0 00-.041.707l.019-.037zM606.699 96.78c-.085-.14-.272-.375-.193-.57.079-.194.179-.162.313-.229.294-.147.637-.255.81.141a.73.73 0 01-.094.635c-.112.14-.44.302-.593.154l-.243-.13zM578.305 52.593c.26.362.272.387.682.48.306.107.634.138.955.088.435-.13.551-.524.807-.823a.748.748 0 00.247-.702 2.806 2.806 0 00-.37-.95 3.716 3.716 0 00-2.736-1.56c-.663-.048-1.47-.02-1.97.503a1.686 1.686 0 00-.43 1.667 1.883 1.883 0 001.294 1.149l.417.093c.165.069.323.154.472.254.18.064.382.049.632-.2zM579.145 54.303c.467-.19.375-.163.749-.038.162.058.227.013.35.123a.587.587 0 01.07.654c-.077.144-.48.215-.618.213a.433.433 0 01-.409-.249l-.142-.703zM560.655 88.455c.245.223.548.513.933.298.256-.15.304-.565.26-.84a2.28 2.28 0 00-.754-1.208c-.345-.252-.984-.013-1.212.31-.464.657.435 1.622.923 1.954l-.15-.514zM563.604 90.67c-.104-.005-.432.036-.519-.047-.048-.026-.018-.1-.046-.145a.623.623 0 01-.094-.502.823.823 0 01.797-.6.489.489 0 01.538.356.645.645 0 01-.386.77l-.29.167zM617.6 79.614c.388.474.921.808 1.517.952.379.116.854.31 1.206.022.823-.676-.66-2.335-1.162-2.813a4.294 4.294 0 00-1.517-.944c-.339-.11-1.083-.197-1.405.023-.415.284-.412.872-.228 1.263.402.945 1.396 1.28 2.06 1.969l-.471-.472zM617.238 79.995a2.55 2.55 0 00-.199.694c.01.13.024.334.13.435a.53.53 0 00.511.038.385.385 0 00.262-.256c.012-.096-.063-.22-.103-.303a2.157 2.157 0 00-.277-.426 1.01 1.01 0 00-.153-.189c-.101-.083-.182-.028-.285-.047l.114.054zM621.47 82.904l.288-.21c.102.081.255.109.269.258a.64.64 0 01-.175.38.32.32 0 01-.392.051c-.153-.082-.137-.26-.088-.411l.098-.068zM620.273 99.65a.348.348 0 00.391.14.502.502 0 00.379-.561c-.058-.36-.347-.88-.726-.988-.236-.07-.635.077-.625.363 0 .16.018.321.056.478.097.23.268.423.486.546l.039.021zM555.187 50.727c.04.15.042.22.156.314a.64.64 0 00.444.184 1.73 1.73 0 00.983-.615.931.931 0 00.252-.786 1.155 1.155 0 00-.468-.843.79.79 0 00-.916-.107 2.465 2.465 0 00-.809.603.809.809 0 00-.146.731c.051.25.19.616.504.52zM557.415 48.993c-.085-.046-.184-.1-.162-.193a.63.63 0 01.383-.326.542.542 0 01.383.053.371.371 0 01.106.243.324.324 0 01-.152.344c-.084.047-.273.175-.362.09l-.196-.211zM543.041 50.21a.602.602 0 00.401.113c.261-.019.514-.097.739-.229.307-.154.556-.404.711-.71a.661.661 0 00-.212-.69 1.314 1.314 0 00-.878-.218 1.747 1.747 0 00-1.313.922c-.248.577.558 1.037.552.811zM546.254 48.852a.488.488 0 01-.265.018c.007-.102-.067-.175-.053-.28a.416.416 0 01.178-.25.385.385 0 01.386-.04c.141.075.147.14.144.288-.003.148.007.135-.105.195-.068.043-.14.079-.215.107l-.07-.038z" fill="#fff" opacity=".36"/></g><path fill-rule="evenodd" clip-rule="evenodd" d="M599.482 100.855c.443.239.664.697.489 1.022-.175.325-.678.393-1.122.154-.444-.239-.661-.695-.486-1.02.175-.325.675-.394 1.119-.156z" fill="url(#paint50_linear_110_3490)"/><path fill-rule="evenodd" clip-rule="evenodd" d="M599.415 100.98c.351.188.522.547.384.804-.139.257-.532.311-.883.123-.35-.189-.522-.547-.383-.805.138-.257.535-.309.882-.122z" fill="#fff"/><path fill-rule="evenodd" clip-rule="evenodd" d="M610.455 76.46a.835.835 0 01.453 1.082.838.838 0 01-1.153.218.84.84 0 01-.455-1.084.841.841 0 011.155-.216z" fill="url(#paint51_linear_110_3490)"/><path fill-rule="evenodd" clip-rule="evenodd" d="M610.38 76.598a.66.66 0 01.358.852.662.662 0 01-.908.171.663.663 0 01-.358-.852.662.662 0 01.908-.17z" fill="#fff"/><path d="M604.787 88.626a.92.92 0 00-.367-1.248.92.92 0 00-1.244.38.92.92 0 00.368 1.248.92.92 0 001.243-.38z" fill="url(#paint52_linear_110_3490)"/><path fill-rule="evenodd" clip-rule="evenodd" d="M604.327 87.55a.727.727 0 01-.139 1.335.727.727 0 01-.552-.052.725.725 0 01-.287-.982.725.725 0 01.978-.3z" fill="#fff"/><path style="mix-blend-mode:screen" d="M604.807 82.611a5.288 5.288 0 014.594 5.962 5.397 5.397 0 01-5.966 4.683 5.29 5.29 0 01-4.462-3.887 5.283 5.283 0 01-.132-2.075 5.393 5.393 0 015.966-4.683z" fill="url(#paint53_radial_110_3490)"/><path style="mix-blend-mode:screen" d="M573.391 42.169a4.223 4.223 0 013.668 4.756 4.307 4.307 0 01-4.764 3.737 4.226 4.226 0 01-3.667-4.759 4.312 4.312 0 014.763-3.734z" fill="url(#paint54_radial_110_3490)"/><path style="mix-blend-mode:screen" d="M537.221 48.698a4.225 4.225 0 013.668 4.756 4.3 4.3 0 01-4.764 3.737 4.23 4.23 0 01-2.827-1.612 4.218 4.218 0 01-.841-3.144 4.308 4.308 0 014.764-3.737z" fill="url(#paint55_radial_110_3490)"/><path style="mix-blend-mode:screen" d="M551.478 83.776a2.188 2.188 0 011.461.833 2.192 2.192 0 01.435 1.624 2.229 2.229 0 01-2.462 1.933 2.175 2.175 0 01-1.461-.834 2.197 2.197 0 01-.434-1.626 2.228 2.228 0 012.461-1.93z" fill="url(#paint56_radial_110_3490)"/><path style="mix-blend-mode:screen" d="M610.17 75.439a2.048 2.048 0 011.731 1.498c.07.261.088.534.052.803a2.076 2.076 0 01-2.302 1.804 2.032 2.032 0 01-1.365-.778 2.038 2.038 0 01-.406-1.517 2.076 2.076 0 012.29-1.81z" fill="url(#paint57_radial_110_3490)"/><path style="mix-blend-mode:screen" d="M599.228 99.77a2.038 2.038 0 011.77 2.299 2.083 2.083 0 01-2.299 1.805 2.059 2.059 0 01-.762-.252 2.051 2.051 0 01-.96-1.246 2.041 2.041 0 01-.051-.801 2.08 2.08 0 012.302-1.804z" fill="url(#paint58_radial_110_3490)"/></g><defs><radialGradient id="paint30_radial_110_3490" cx="0" cy="0" r="1" gradientUnits="userSpaceOnUse" gradientTransform="matrix(8.15331 -15.14361 14.99516 8.07339 567.39 69.577)"><stop offset=".02" stop-color="#8881BC"/><stop offset=".29" stop-color="#8375B7"/><stop offset=".77" stop-color="#7555AA"/><stop offset=".99" stop-color="#6D43A3"/></radialGradient><radialGradient id="paint0_radial_110_3490" cx="0" cy="0" r="1" gradientUnits="userSpaceOnUse" gradientTransform="matrix(276.007 0 0 275.972 276.007 275.972)"><stop offset=".81" stop-color="#008BC4"/><stop offset=".979" stop-opacity="0"/></radialGradient><radialGradient id="paint2_radial_110_3490" cx="0" cy="0" r="1" gradientUnits="userSpaceOnUse" gradientTransform="matrix(106.48696 -68.17146 32.72062 51.11111 425.22 481.752)"><stop stop-color="#2C6AFF"/><stop offset="1" stop-opacity="0"/></radialGradient><radialGradient id="paint3_radial_110_3490" cx="0" cy="0" r="1" gradientUnits="userSpaceOnUse" gradientTransform="rotate(151.643 92.606 200.37) scale(52.3805)"><stop stop-color="#F4DBEE"/><stop offset="1" stop-color="#D1BDE5"/></radialGradient><radialGradient id="paint58_radial_110_3490" cx="0" cy="0" r="1" gradientUnits="userSpaceOnUse" gradientTransform="matrix(.26034 -2.05917 2.03356 .2571 599.009 101.965)"><stop stop-color="#003CEE"/><stop offset=".06" stop-color="#0036D6"/><stop offset=".2" stop-color="#00289E"/><stop offset=".34" stop-color="#001C6D"/><stop offset=".48" stop-color="#001246"/><stop offset=".62" stop-color="#000A27"/><stop offset=".75" stop-color="#000412"/><stop offset=".88" stop-color="#000104"/><stop offset="1"/></radialGradient><radialGradient id="paint57_radial_110_3490" cx="0" cy="0" r="1" gradientUnits="userSpaceOnUse" gradientTransform="matrix(.26034 -2.05917 2.03357 .2571 609.889 77.557)"><stop stop-color="#003CEE"/><stop offset=".06" stop-color="#0036D6"/><stop offset=".2" stop-color="#00289E"/><stop offset=".34" stop-color="#001C6D"/><stop offset=".48" stop-color="#001246"/><stop offset=".62" stop-color="#000A27"/><stop offset=".75" stop-color="#000412"/><stop offset=".88" stop-color="#000104"/><stop offset="1"/></radialGradient><radialGradient id="paint6_radial_110_3490" cx="0" cy="0" r="1" gradientUnits="userSpaceOnUse" gradientTransform="rotate(151.643 103.921 294.374) scale(55.8371)"><stop stop-color="#F4F1FF"/><stop offset="1" stop-color="#D1BDE5"/></radialGradient><radialGradient id="paint7_radial_110_3490" cx="0" cy="0" r="1" gradientUnits="userSpaceOnUse" gradientTransform="rotate(151.643 176.46 205.95) scale(57.1759)"><stop stop-color="#F4DBEE"/><stop offset="1" stop-color="#D1BDE5"/></radialGradient><radialGradient id="paint8_radial_110_3490" cx="0" cy="0" r="1" gradientUnits="userSpaceOnUse" gradientTransform="rotate(151.643 174.846 281.826) scale(67.3269)"><stop stop-color="#F4F1FF"/><stop offset="1" stop-color="#D1BDE5"/></radialGradient><radialGradient id="paint56_radial_110_3490" cx="0" cy="0" r="1" gradientUnits="userSpaceOnUse" gradientTransform="matrix(.27846 -2.2025 2.17512 .275 551.257 86.054)"><stop stop-color="#FF9A00"/><stop offset=".09" stop-color="#D68100"/><stop offset=".23" stop-color="#9E5F00"/><stop offset=".36" stop-color="#6E4200"/><stop offset=".5" stop-color="#462A00"/><stop offset=".63" stop-color="#271800"/><stop offset=".76" stop-color="#120B00"/><stop offset=".89" stop-color="#040300"/><stop offset="1"/></radialGradient><radialGradient id="paint55_radial_110_3490" cx="0" cy="0" r="1" gradientUnits="userSpaceOnUse" gradientTransform="matrix(.5388 -4.26168 4.20868 .5321 536.693 52.922)"><stop stop-color="#FF9A00"/><stop offset=".09" stop-color="#D68100"/><stop offset=".23" stop-color="#9E5F00"/><stop offset=".36" stop-color="#6E4200"/><stop offset=".5" stop-color="#462A00"/><stop offset=".63" stop-color="#271800"/><stop offset=".76" stop-color="#120B00"/><stop offset=".89" stop-color="#040300"/><stop offset="1"/></radialGradient><radialGradient id="paint54_radial_110_3490" cx="0" cy="0" r="1" gradientUnits="userSpaceOnUse" gradientTransform="matrix(.5388 -4.26168 4.20868 .5321 572.812 46.376)"><stop stop-color="#FF9A00"/><stop offset=".09" stop-color="#D68100"/><stop offset=".23" stop-color="#9E5F00"/><stop offset=".36" stop-color="#6E4200"/><stop offset=".5" stop-color="#462A00"/><stop offset=".63" stop-color="#271800"/><stop offset=".76" stop-color="#120B00"/><stop offset=".89" stop-color="#040300"/><stop offset="1"/></radialGradient><radialGradient id="paint53_radial_110_3490" cx="0" cy="0" r="1" gradientUnits="userSpaceOnUse" gradientTransform="matrix(.67531 -5.34143 5.275 .66691 604.135 88.035)"><stop stop-color="#003CEE"/><stop offset=".06" stop-color="#0036D6"/><stop offset=".2" stop-color="#00289E"/><stop offset=".34" stop-color="#001C6D"/><stop offset=".48" stop-color="#001246"/><stop offset=".62" stop-color="#000A27"/><stop offset=".75" stop-color="#000412"/><stop offset=".88" stop-color="#000104"/><stop offset="1"/></radialGradient><radialGradient id="paint46_radial_110_3490" cx="0" cy="0" r="1" gradientUnits="userSpaceOnUse" gradientTransform="matrix(.2995 -.55629 .55083 .29657 549.85 64.39)"><stop stop-color="#F4BAB3"/><stop offset="1" stop-color="#8D6FC7"/></radialGradient><radialGradient id="paint45_radial_110_3490" cx="0" cy="0" r="1" gradientUnits="userSpaceOnUse" gradientTransform="matrix(.2995 -.55629 .55083 .29657 555.886 55.58)"><stop stop-color="#F4BAB3"/><stop offset="1" stop-color="#8D6FC7"/></radialGradient><radialGradient id="paint44_radial_110_3490" cx="0" cy="0" r="1" gradientUnits="userSpaceOnUse" gradientTransform="matrix(.2995 -.55629 .55083 .29657 565.253 53.459)"><stop stop-color="#F4BAB3"/><stop offset="1" stop-color="#8D6FC7"/></radialGradient><radialGradient id="paint43_radial_110_3490" cx="0" cy="0" r="1" gradientUnits="userSpaceOnUse" gradientTransform="matrix(.2995 -.55629 .55083 .29657 578.232 58.986)"><stop stop-color="#F4BAB3"/><stop offset="1" stop-color="#8D6FC7"/></radialGradient><radialGradient id="paint42_radial_110_3490" cx="0" cy="0" r="1" gradientUnits="userSpaceOnUse" gradientTransform="matrix(.2995 -.55629 .55083 .29657 580.766 69.882)"><stop stop-color="#F4BAB3"/><stop offset="1" stop-color="#8D6FC7"/></radialGradient><radialGradient id="paint41_radial_110_3490" cx="0" cy="0" r="1" gradientUnits="userSpaceOnUse" gradientTransform="matrix(.2995 -.55629 .55083 .29657 574.047 80.344)"><stop stop-color="#F4BAB3"/><stop offset="1" stop-color="#8D6FC7"/></radialGradient><radialGradient id="paint40_radial_110_3490" cx="0" cy="0" r="1" gradientUnits="userSpaceOnUse" gradientTransform="matrix(.2995 -.55629 .55083 .29657 553.483 76.188)"><stop stop-color="#F4BAB3"/><stop offset="1" stop-color="#8D6FC7"/></radialGradient><radialGradient id="paint39_radial_110_3490" cx="0" cy="0" r="1" gradientUnits="userSpaceOnUse" gradientTransform="matrix(.2995 -.55629 .55083 .29657 562.695 82.742)"><stop stop-color="#F4BAB3"/><stop offset="1" stop-color="#8D6FC7"/></radialGradient><radialGradient id="paint38_radial_110_3490" cx="0" cy="0" r="1" gradientUnits="userSpaceOnUse" gradientTransform="matrix(.2995 -.55629 .55083 .29657 592.409 83.772)"><stop offset=".02" stop-color="#8881BC"/><stop offset=".29" stop-color="#8375B7"/><stop offset=".77" stop-color="#7555AA"/><stop offset="1" stop-color="#6D43A3"/></radialGradient><radialGradient id="paint36_radial_110_3490" cx="0" cy="0" r="1" gradientUnits="userSpaceOnUse" gradientTransform="matrix(.2995 -.55629 .55083 .29657 595.853 85.627)"><stop offset=".02" stop-color="#8881BC"/><stop offset=".29" stop-color="#8375B7"/><stop offset=".77" stop-color="#7555AA"/><stop offset="1" stop-color="#6D43A3"/></radialGradient><radialGradient id="paint34_radial_110_3490" cx="0" cy="0" r="1" gradientUnits="userSpaceOnUse" gradientTransform="rotate(-61.702 323.375 -429.23) scale(11.7094 11.5945)"><stop offset=".02" stop-color="#8881BC"/><stop offset=".29" stop-color="#8375B7"/><stop offset=".77" stop-color="#7555AA"/><stop offset=".99" stop-color="#6D43A3"/></radialGradient><radialGradient id="paint33_radial_110_3490" cx="0" cy="0" r="1" gradientUnits="userSpaceOnUse" gradientTransform="matrix(3.0121 -5.59456 10.14699 5.46313 628.83 102.43)"><stop offset=".02" stop-color="#725EB0"/><stop offset=".38" stop-color="#6D52AA"/><stop offset=".99" stop-color="#61349C"/></radialGradient><radialGradient id="paint31_radial_110_3490" cx="0" cy="0" r="1" gradientUnits="userSpaceOnUse" gradientTransform="matrix(10.14374 -18.84054 31.12062 16.75532 552.714 62.489)"><stop offset=".02" stop-color="#725EB0"/><stop offset=".38" stop-color="#6D52AA"/><stop offset=".99" stop-color="#61349C"/></radialGradient><radialGradient id="paint26_radial_110_3490" cx="0" cy="0" r="1" gradientUnits="userSpaceOnUse" gradientTransform="matrix(16.14782 -29.99226 54.12669 29.14178 564.324 61.573)"><stop stop-color="#F4BAB3"/><stop offset=".77" stop-color="#8D6FC7"/><stop offset=".96" stop-color="#B695E5"/></radialGradient><radialGradient id="paint27_radial_110_3490" cx="0" cy="0" r="1" gradientUnits="userSpaceOnUse" gradientTransform="matrix(4.34047 -8.06181 7.1924 3.87239 535.84 52.371)"><stop offset=".02" stop-color="#AB5E75"/><stop offset=".25" stop-color="#9F577B"/><stop offset=".67" stop-color="#7F458C"/><stop offset=".99" stop-color="#61349C"/></radialGradient><radialGradient id="paint1_radial_110_3490" cx="0" cy="0" r="1" gradientUnits="userSpaceOnUse" gradientTransform="matrix(352.047 0 0 352.003 221.372 192.218)"><stop stop-color="#7C83FF"/><stop offset=".84" stop-color="#482088"/><stop offset=".95" stop-color="#403B77"/><stop offset="1" stop-color="#4D79D1"/></radialGradient><radialGradient id="paint29_radial_110_3490" cx="0" cy="0" r="1" gradientUnits="userSpaceOnUse" gradientTransform="rotate(-61.702 379.724 -462.636) scale(16.1744 29.336)"><stop offset=".02" stop-color="#8881BC"/><stop offset=".29" stop-color="#8375B7"/><stop offset=".77" stop-color="#7555AA"/><stop offset=".99" stop-color="#6D43A3"/></radialGradient><linearGradient id="paint14_linear_110_3490" x1="362.453" y1="170.661" x2="185.061" y2="196.392" gradientUnits="userSpaceOnUse"><stop stop-color="#AA367C"/><stop offset="1" stop-color="#4A2FBD"/></linearGradient><linearGradient id="paint28_linear_110_3490" x1="537.636" y1="53.335" x2="534.338" y2="51.56" gradientUnits="userSpaceOnUse"><stop stop-color="#FFFF18"/><stop offset="1" stop-color="#FF7400"/></linearGradient><linearGradient id="paint32_linear_110_3490" x1="576.192" y1="73.875" x2="553.134" y2="61.46" gradientUnits="userSpaceOnUse"><stop stop-color="#FFFF29"/><stop offset="1" stop-color="#FF7E59"/></linearGradient><linearGradient id="paint24_linear_110_3490" x1="644.653" y1="87.425" x2="618.257" y2="73.214" gradientUnits="userSpaceOnUse"><stop stop-color="#A43440"/><stop offset="1" stop-color="#C73634"/></linearGradient><linearGradient id="paint23_linear_110_3490" x1="670.171" y1="121.012" x2="630.746" y2="99.786" gradientUnits="userSpaceOnUse"><stop stop-opacity="0"/><stop offset="1" stop-color="#106D90"/></linearGradient><linearGradient id="paint35_linear_110_3490" x1="596.113" y1="85.611" x2="594.723" y2="84.862" gradientUnits="userSpaceOnUse"><stop stop-color="#8DC7FF"/><stop offset=".32" stop-color="#5C4D86"/></linearGradient><linearGradient id="paint22_linear_110_3490" x1="371.166" y1="325.643" x2="349.432" y2="328.801" gradientUnits="userSpaceOnUse"><stop stop-color="#AA367C"/><stop offset="1" stop-color="#4A2FBD"/></linearGradient><linearGradient id="paint37_linear_110_3490" x1="592.683" y1="83.763" x2="591.29" y2="83.013" gradientUnits="userSpaceOnUse"><stop stop-color="#8DC7FF"/><stop offset=".32" stop-color="#5C4D86"/></linearGradient><linearGradient id="paint21_linear_110_3490" x1="213.606" y1="329.625" x2="197.472" y2="338.333" gradientUnits="userSpaceOnUse"><stop stop-color="#9579A7"/><stop offset="1" stop-color="#fff"/></linearGradient><linearGradient id="paint20_linear_110_3490" x1="508.65" y1="285.856" x2="482.104" y2="300.184" gradientUnits="userSpaceOnUse"><stop stop-color="#fff"/><stop offset="1" stop-color="#9579A7"/></linearGradient><linearGradient id="paint19_linear_110_3490" x1="357.554" y1="202.526" x2="190.46" y2="227.008" gradientUnits="userSpaceOnUse"><stop stop-color="#5A30B2"/><stop offset="1" stop-color="#AA367C"/><stop offset="1" stop-color="#4A2FBD"/></linearGradient><linearGradient id="paint18_linear_110_3490" x1="535.63" y1="489.793" x2="497.11" y2="510.584" gradientUnits="userSpaceOnUse"><stop stop-color="#fff"/><stop offset="1" stop-color="#9579A7"/></linearGradient><linearGradient id="paint17_linear_110_3490" x1="410.965" y1="542.749" x2="370.063" y2="564.825" gradientUnits="userSpaceOnUse"><stop stop-color="#fff"/><stop offset="1" stop-color="#9579A7"/></linearGradient><linearGradient id="paint16_linear_110_3490" x1="398.339" y1="241.982" x2="347.985" y2="148.685" gradientUnits="userSpaceOnUse"><stop stop-color="#D1BDE5"/><stop offset="1" stop-color="#F4DBEE"/></linearGradient><linearGradient id="paint15_linear_110_3490" x1="417.902" y1="176.17" x2="238.643" y2="272.921" gradientUnits="userSpaceOnUse"><stop stop-color="#fff"/><stop offset="1" stop-color="#9579A7"/></linearGradient><linearGradient id="paint25_linear_110_3490" x1="625.15" y1="123.649" x2="598.754" y2="109.437" gradientUnits="userSpaceOnUse"><stop stop-color="#A43440"/><stop offset="1" stop-color="#C73634"/></linearGradient><linearGradient id="paint13_linear_110_3490" x1="351.441" y1="279.093" x2="256.552" y2="103.285" gradientUnits="userSpaceOnUse"><stop stop-color="#D1BDE5"/><stop offset="1" stop-color="#fff"/></linearGradient><linearGradient id="paint47_linear_110_3490" x1="637.732" y1="100.28" x2="608.403" y2="84.489" gradientUnits="userSpaceOnUse"><stop stop-color="#A43411"/><stop offset="1" stop-color="#C73634"/></linearGradient><linearGradient id="paint48_linear_110_3490" x1="572.922" y1="47.406" x2="573.868" y2="45.648" gradientUnits="userSpaceOnUse"><stop stop-color="#FFFF18"/><stop offset="1" stop-color="#FF7400"/></linearGradient><linearGradient id="paint49_linear_110_3490" x1="551.023" y1="86.943" x2="551.913" y2="85.29" gradientUnits="userSpaceOnUse"><stop stop-color="#FFFF18"/><stop offset="1" stop-color="#FF7400"/></linearGradient><linearGradient id="paint50_linear_110_3490" x1="599.971" y1="101.877" x2="598.363" y2="101.011" gradientUnits="userSpaceOnUse"><stop stop-color="#8DC7FF"/><stop offset=".32" stop-color="#5C4D86"/></linearGradient><linearGradient id="paint51_linear_110_3490" x1="610.913" y1="77.545" x2="609.306" y2="76.679" gradientUnits="userSpaceOnUse"><stop stop-color="#8DC7FF"/><stop offset=".32" stop-color="#5C4D86"/></linearGradient><linearGradient id="paint52_linear_110_3490" x1="604.787" y1="88.626" x2="603.179" y2="87.76" gradientUnits="userSpaceOnUse"><stop stop-color="#8DC7FF"/><stop offset=".32" stop-color="#5C4D86"/></linearGradient><linearGradient id="paint12_linear_110_3490" x1="508.892" y1="353.989" x2="335.02" y2="447.833" gradientUnits="userSpaceOnUse"><stop stop-color="#fff"/><stop offset="1" stop-color="#9579A7"/></linearGradient><linearGradient id="paint11_linear_110_3490" x1="441.315" y1="314.65" x2="395.787" y2="321.181" gradientUnits="userSpaceOnUse"><stop stop-color="#AA367C"/><stop offset="1" stop-color="#4A2FBD"/></linearGradient><linearGradient id="paint10_linear_110_3490" x1="407.466" y1="509.787" x2="334.769" y2="520.482" gradientUnits="userSpaceOnUse"><stop stop-color="#AA367C"/><stop offset="1" stop-color="#4A2FBD"/></linearGradient><linearGradient id="paint9_linear_110_3490" x1="525.451" y1="459.275" x2="447.527" y2="470.638" gradientUnits="userSpaceOnUse"><stop stop-color="#AA367C"/><stop offset="1" stop-color="#4A2FBD"/></linearGradient><linearGradient id="paint5_linear_110_3490" x1="329.052" y1="316.685" x2="274.373" y2="346.197" gradientUnits="userSpaceOnUse"><stop stop-color="#9579A7"/><stop offset="1" stop-color="#fff"/></linearGradient><linearGradient id="paint4_linear_110_3490" x1="291.577" y1="337.249" x2="250.117" y2="343.2" gradientUnits="userSpaceOnUse"><stop stop-color="#AA367C"/><stop offset="1" stop-color="#4A2FBD"/></linearGradient><clipPath id="clip0_110_3490"><path fill="#fff" d="M0 0h552v562H0z"/></clipPath><clipPath id="clip1_110_3490"><path fill="#fff" transform="rotate(-61.702 321.699 -399.554)" d="M0 0h52.37v153.935H0z"/></clipPath></defs></svg>