<svg width="150" height="146" viewBox="0 0 150 146" fill="none" xmlns="http://www.w3.org/2000/svg">
<path d="M108.024 48.4133C103.416 53.015 58.0618 107.41 1.82122 112.891C0.642619 113.009 0.0640972 112.569 0.0105246 112.258C-0.600203 108.643 25.5752 102.84 24.7717 97.4982C23.1737 86.8834 24.6031 76.0326 28.8948 66.1952C33.1864 56.3579 40.166 47.934 49.03 41.8936C57.894 35.8531 68.2816 32.4419 78.9972 32.0525C89.7128 31.6631 100.32 34.3114 109.598 39.6926C112.577 41.4303 112.802 43.6292 108.024 48.4133ZM41.7004 130.182C42.7718 131.169 43.8433 132.124 44.9148 133.046C55.6561 141.88 69.2554 146.474 83.147 145.961C97.0386 145.449 110.262 139.865 120.325 130.263C130.388 120.662 136.593 107.706 137.771 93.8393C138.949 79.9727 135.019 66.1537 126.72 54.9887C124.267 51.6957 131.478 40.4971 129.678 38.695C129.11 38.1265 128.167 38.5877 127.213 40.1002C126.624 41.0441 92.2087 97.0692 47.0362 121.826C42.5254 124.315 37.1039 125.784 41.7004 130.182V130.182ZM145.803 19.1404C143.992 21.5325 144.849 23.9781 145.374 26.4989C146.607 32.3234 142.46 35.9597 141.26 34.4151C134.798 26.5467 126.586 20.3018 117.281 16.1799C115.395 15.4076 118.245 11.1062 121.749 10.3339C124.963 9.64738 128.445 10.6986 130.738 7.6737C136.32 0.293803 144.485 -1.36884 147.625 1.01246C150.764 3.39377 151.385 11.7605 145.803 19.1404V19.1404ZM143.789 6.0325C142.717 5.21728 140.103 5.63564 138.035 7.72732C137.941 7.82013 137.87 7.93325 137.828 8.05788C137.785 8.18251 137.772 8.31529 137.788 8.44599C137.804 8.5741 137.849 8.69697 137.919 8.80489C137.99 8.91282 138.084 9.0029 138.195 9.06815C139.688 9.98037 141.091 11.0327 142.385 12.211C142.482 12.3016 142.597 12.3697 142.723 12.4105C142.849 12.4512 142.983 12.4638 143.114 12.4471C143.242 12.4235 143.363 12.3731 143.47 12.2992C143.577 12.2252 143.667 12.1294 143.735 12.018C145.171 9.4114 144.86 6.84772 143.789 6.0325Z" fill="url(#paint0_linear_8_754)"/>
<defs>
<linearGradient id="paint0_linear_8_754" x1="52.5012" y1="145.882" x2="150.151" y2="6.53929" gradientUnits="userSpaceOnUse">
<stop stop-color="#181661"/>
<stop offset="0.09" stop-color="#311D70"/>
<stop offset="0.33" stop-color="#6D2D93"/>
<stop offset="0.55" stop-color="#9C3AB0"/>
<stop offset="0.74" stop-color="#BF43C4"/>
<stop offset="0.9" stop-color="#D349D0"/>
<stop offset="1" stop-color="#DB4BD5"/>
</linearGradient>
</defs>
</svg>
