<?xml version="1.0" encoding="UTF-8" standalone="no"?> <svg xmlns="http://www.w3.org/2000/svg" width="512" height="512" viewBox="0 0 512 512">    <g>    <g>      <path d="M128.01,336.3l9.14-11.39a136.661,136.661,0,0,1-9.14-18.95.488.488,0,0,0-.03-.07l.01,30.44Z" fill="#57a4ff"/>      <path d="M127.98,174.48v31.65c0-.02.01-.03.01-.04a137.121,137.121,0,0,1,9.43-19.47Z" fill="#57a4ff"/>      <path d="M255.99,157.88a98.12,98.12,0,1,0,98.13,98.11A98.127,98.127,0,0,0,255.99,157.88Z" fill="#57a4ff"/>      <path d="M151.73,109.88l34.56,27.74a136.689,136.689,0,0,1,34.79-14.5l5.46-42.73,58.87-.01,4.77,42.54a136.636,136.636,0,0,1,35.29,14.56l34.4-26.76,24.11,24.1-.01-98.84a19.986,19.986,0,0,0-20-19.99l-68,.01-7.99,32h-64l-8.01-32-68,.01a20,20,0,0,0-20,20.01l.01,97.62Z" fill="#57a4ff"/>      <path d="M374.33,186.21A136.151,136.151,0,0,1,383.98,206V174.19Z" fill="#57a4ff"/>      <path d="M383.99,339.05V305.94a136.151,136.151,0,0,1-9.94,20.33Z" fill="#57a4ff"/>      <path d="M384.01,377.14l-24.97,24.98L325,374.8a136.966,136.966,0,0,1-35.35,14.41l-5.42,42.4-58.87.01-4.81-42.88a136.417,136.417,0,0,1-34.72-14.64L150.9,401.28l-22.91-22.91v21.27h.02l.02,76.38a19.986,19.986,0,0,0,20,19.99l216-.02a20,20,0,0,0,20-20.01Z" fill="#57a4ff"/>    </g>    <g>      <path d="M288.024,464l-64,.008a8,8,0,1,0,0,16l64-.008a8,8,0,0,0,0-16Z" fill="#004fac"/>      <path d="M432.99,219.22l-37.63-4.7q-1.5-5.04-3.37-9.94v-27.6l15.76-19.63a8,8,0,0,0-.59-10.66l-15.18-15.18-.01-95.53A27.979,27.979,0,0,0,363.98,7.99h-.01l-68,.01h-40l-108,.01a28.046,28.046,0,0,0-28,28.01l.01,94.3-15.53,15.54a8.013,8.013,0,0,0-.66,10.57l16.2,20.81v27.38q-1.71,4.53-3.12,9.15L79.1,218.02a8,8,0,0,0-7.1,7.95v58.87a8.007,8.007,0,0,0,6.98,7.94l37.7,4.84q1.485,4.965,3.33,9.82v26.05l-16.98,21.16a7.984,7.984,0,0,0,.58,10.66l16.41,16.4.01,94.31a27.979,27.979,0,0,0,27.99,27.99h.01l216-.02a28.046,28.046,0,0,0,28-28.01l-.01-95.53,14.3-14.31a8,8,0,0,0,.66-10.57l-14.97-19.24V307.38q1.725-4.59,3.16-9.27l37.71-4.13a7.993,7.993,0,0,0,7.12-7.95V227.16A8,8,0,0,0,432.99,219.22ZM285.73,24l-4,16H230.22l-4-16Zm-137.76.01h61.76l6.48,25.94A8.012,8.012,0,0,0,223.98,56h64a8,8,0,0,0,7.76-6.06l6.48-25.95h61.75a11.984,11.984,0,0,1,12,12l.01,79.53-10.45-10.45a7.991,7.991,0,0,0-10.57-.66l-30.2,23.49a144.5,144.5,0,0,0-27.23-11.24l-4.16-37.17a8.009,8.009,0,0,0-7.96-7.11l-58.87.01a8,8,0,0,0-7.93,6.99l-4.79,37.48a144.619,144.619,0,0,0-26.74,11.13l-30.34-24.35a8.005,8.005,0,0,0-10.66.58l-10.1,10.1-.01-78.31A12.022,12.022,0,0,1,147.97,24.01ZM364.03,487.99l-216,.02a11.984,11.984,0,0,1-12-12l-.01-78.3,9.22,9.22a7.992,7.992,0,0,0,10.57.66l30.71-23.89a143.966,143.966,0,0,0,26.68,11.25l4.21,37.56a8,8,0,0,0,7.95,7.11l58.87-.01a8.007,8.007,0,0,0,7.94-6.99l4.74-37.1a144.229,144.229,0,0,0,27.28-11.12l29.84,23.96a8.008,8.008,0,0,0,10.67-.58l11.32-11.33.01,79.54A12.022,12.022,0,0,1,364.03,487.99ZM424,278.86l-35.94,3.93a7.984,7.984,0,0,0-6.87,5.94,128.966,128.966,0,0,1-14.01,33.44,8,8,0,0,0,.55,9.01l22.28,28.64-11.6,11.61a1.1,1.1,0,0,0-.1.11l-19.85,19.85-28.45-22.83a8.025,8.025,0,0,0-9.04-.68,128.32,128.32,0,0,1-33.27,13.57,8.01,8.01,0,0,0-5.99,6.74l-4.52,35.42-44.68.01-4.01-35.77a7.98,7.98,0,0,0-5.89-6.84,128.757,128.757,0,0,1-32.69-13.78,7.973,7.973,0,0,0-9,.56l-29.36,22.84L120,359.07l23.39-29.15a8.009,8.009,0,0,0,.68-9.03,128.575,128.575,0,0,1-13.36-32.52,7.981,7.981,0,0,0-6.72-5.94L88,277.8V233.12l36-4.05a8.012,8.012,0,0,0,6.85-5.93,128.644,128.644,0,0,1,13.48-32.47,8.016,8.016,0,0,0-.59-8.96l-22.98-29.53,12.86-12.87c.02-.01.03-.03.04-.04l18.66-18.66,28.97,23.25a8,8,0,0,0,9.07.65,128.372,128.372,0,0,1,32.75-13.65,8.012,8.012,0,0,0,5.91-6.73l4.57-35.74,44.67-.01,3.97,35.43a7.994,7.994,0,0,0,5.97,6.86,128.457,128.457,0,0,1,33.22,13.71,8.012,8.012,0,0,0,8.97-.58l28.82-22.43,31.57,31.56L368.09,181.2a8,8,0,0,0-.65,9.08,128.594,128.594,0,0,1,13.88,33.5,7.989,7.989,0,0,0,6.76,5.95L424,234.22Z" fill="#004fac"/>      <path d="M331.03,180.95A105.455,105.455,0,0,0,256,149.88h-.01A106.12,106.12,0,0,0,256,362.12h.01a106.123,106.123,0,0,0,75.02-181.17Zm-11.3,138.77a89.531,89.531,0,0,1-63.72,26.4H256a90.12,90.12,0,0,1-.01-180.24H256a90.121,90.121,0,0,1,63.73,153.84Z" fill="#004fac"/>      <path d="M232,216l-32,.01a8,8,0,0,0-8,8v64a8,8,0,0,0,16,0v-24l16-.01v24a8,8,0,0,0,16,0V224A8,8,0,0,0,232,216Zm-8,32-16,.01v-16l16-.01Z" fill="#004fac"/>      <path d="M288,216H256a8,8,0,0,0-8,8v64a8,8,0,0,0,16,0V264h24a8,8,0,0,0,8-8V224A8,8,0,0,0,288,216Zm-8,32H264V232h16Z" fill="#004fac"/>      <path d="M312,215.993a8,8,0,0,0-8,8l.008,64a8,8,0,0,0,16,0l-.008-64A8,8,0,0,0,312,215.993Z" fill="#004fac"/>    </g>  </g></svg>