<svg xmlns="http://www.w3.org/2000/svg" shape-rendering="geometricPrecision" text-rendering="geometricPrecision" image-rendering="optimizeQuality" fill-rule="evenodd" clip-rule="evenodd" viewBox="0 0 391 512"><path fill="#333" fill-rule="nonzero" d="M299.2 200.71v-27.22c0-43.14-24.37-83.95-64.5-101.41a98.16 98.16 0 0 0-39.22-8.16c-13.89 0-27.15 2.91-39.22 8.17-40.15 17.43-64.5 58.28-64.5 101.4v27.22H27.85v-27.22c0-68.54 39.93-132.63 103.43-160.14C151.11 4.75 172.81 0 195.49 0c22.67 0 44.4 4.76 64.24 13.35C323.2 40.83 363.14 105 363.14 173.49v27.22H299.2z"/><path fill="#00A912" d="M26.19 200.71h338.62c14.41 0 26.19 11.79 26.19 26.19v258.91c0 14.4-11.78 26.19-26.19 26.19H26.19C11.77 512 0 500.21 0 485.81V226.9c-.01-14.41 11.78-26.19 26.19-26.19z"/><path fill="#fff" d="m144.85 325.75 31.85 30.36 70.47-71.34c5.31-5.38 8.63-9.7 15.16-2.97l21.22 21.73c6.96 6.89 6.61 10.93.04 17.34l-94.77 93.34c-13.86 13.58-11.44 14.41-25.49.47l-54.18-53.9c-2.93-3.16-2.62-6.37.59-9.54l24.62-25.53c3.73-3.93 6.7-3.58 10.49.04z"/></svg>