<svg xmlns="http://www.w3.org/2000/svg" viewBox="0 0 24 24"><path fill="#DF34A6" d="M4.657 5.218A2.087 2.087 0 0 0 1.779 6a2.167 2.167 0 0 0-.22.566c-.272 1.151.424 2.308 1.554 2.584l-.001 5.699a2.098 2.098 0 0 0-1.026.603 2.167 2.167 0 0 0 .069 3.026 2.08 2.08 0 0 0 2.975-.07l4.853 2.847a2.176 2.176 0 0 0-.087.609c.001 1.181.943 2.137 2.104 2.136.224 0 .445-.037.659-.108 1.104-.371 1.704-1.582 1.338-2.706l4.822-2.832a2.088 2.088 0 0 0 3.395-.353c.103-.181.181-.377.228-.581.269-1.146-.427-2.296-1.553-2.569V9.152a2.07 2.07 0 0 0 .549-.223 2.164 2.164 0 0 0 .782-2.928 2.123 2.123 0 0 0-.371-.477 2.083 2.083 0 0 0-2.981.077l-4.852-2.85c.058-.199.089-.408.088-.617C14.103.954 13.161-.001 12 0c-.203 0-.406.029-.6.088-1.111.335-1.747 1.524-1.417 2.657l-4.855 2.85a2.034 2.034 0 0 0-.471-.377zm8.899 15.203A2.087 2.087 0 0 0 12 19.723c-.596 0-1.133.249-1.514.653L5.63 17.524l.021-.083h12.698c.011.048.023.095.037.142l-4.83 2.838zM13.51 3.628l4.863 2.858-.019.072c-.279 1.146.406 2.305 1.532 2.588v5.707c-.026.007-.055.014-.081.023l-6.352-11.19a.623.623 0 0 0 .057-.058zm-2.095.566c.382.112.788.112 1.172 0L18.94 15.38a2.165 2.165 0 0 0-.593 1.044H5.654a2.176 2.176 0 0 0-.59-1.041l6.351-11.189zM5.624 6.479l4.863-2.852.059.06-6.35 11.189-.083-.023V9.145l.075-.021c1.115-.327 1.758-1.51 1.436-2.645z"/></svg>