<svg width="103" height="43" viewBox="0 0 103 43" fill="none" xmlns="http://www.w3.org/2000/svg">
<path d="M38.152 23.528H38.312C38.6107 23.528 38.7813 23.704 38.824 24.056C38.824 24.3653 38.4027 24.52 37.56 24.52C36.2053 25.032 35.2933 25.7787 34.824 26.76L34.712 27.224V27.32C34.712 27.7893 35.0267 28.024 35.656 28.024L37.416 27.928C38.6 27.928 39.4 28.504 39.816 29.656L39.912 30.216C39.912 31.3253 39.016 32.3387 37.224 33.256C36.6907 33.4053 36.2213 33.5067 35.816 33.56C34.728 33.56 33.96 32.9467 33.512 31.72C33.384 31.304 33.32 30.8827 33.32 30.456C33.32 30.328 33.4213 30.1947 33.624 30.056H33.816C34.1467 30.056 34.312 30.4773 34.312 31.32C34.5893 32.152 35.0267 32.568 35.624 32.568H36.056C36.92 32.568 37.7733 32.0667 38.616 31.064C38.84 30.744 38.952 30.3973 38.952 30.024C38.952 29.5013 38.5413 29.1333 37.72 28.92H37.656L35.56 28.968C34.3973 28.8293 33.816 28.3493 33.816 27.528L33.752 27.32C33.752 26.2213 34.5733 25.1547 36.216 24.12C36.9307 23.7253 37.576 23.528 38.152 23.528ZM42.6173 24.696C43.3426 24.696 43.7639 25.2187 43.8813 26.264C43.8813 27.128 43.6786 27.672 43.2733 27.896H43.1773C42.8679 27.8747 42.7133 27.7627 42.7133 27.56L42.7773 26.36V25.768L42.6813 25.656H42.5213C42.1799 25.656 41.7799 26.6053 41.3213 28.504L41.2253 29.704V30.056C41.2253 31.1653 41.7213 31.816 42.7133 32.008H43.3853C44.4946 32.008 45.8386 31.2933 47.4173 29.864H47.4813C47.7693 29.864 47.9346 30.0453 47.9773 30.408C47.7319 31.048 47.4439 31.368 47.1133 31.368C45.5879 32.456 44.2173 33 43.0013 33C41.7853 33 40.9266 32.3333 40.4253 31L40.2812 29.864V29.656C40.2812 28.0027 40.7453 26.4827 41.6733 25.096C41.9719 24.8293 42.2866 24.696 42.6173 24.696ZM51.3213 23.896H51.3853C52.6759 24.1307 53.3213 24.7547 53.3213 25.768V26.056C53.3213 27.176 52.6066 28.2907 51.1773 29.4V29.464C53.4919 31.5333 55.0919 32.568 55.9773 32.568C56.1373 32.6853 56.2173 32.8293 56.2173 33C56.2173 33.2453 56.0359 33.4 55.6733 33.464C54.7879 33.464 53.1346 32.3973 50.7133 30.264L50.0253 29.896H49.9773C50.2759 31.0907 50.4253 32.0133 50.4253 32.664C50.4253 32.9413 50.2546 33.1387 49.9133 33.256C49.4226 33.256 49.1133 32.056 48.9853 29.656C48.6439 28.5467 48.4733 27.6613 48.4733 27V26.856C48.4733 25.8853 48.6866 25.4 49.1133 25.4L49.4173 25.56H49.5133C50.0253 24.4507 50.6279 23.896 51.3213 23.896ZM50.0253 28.168L49.9773 28.76C50.9693 28.76 51.7693 27.9387 52.3773 26.296V25.704C52.3773 25.2347 52.0573 24.952 51.4173 24.856H51.3213C50.6493 24.856 50.2173 25.96 50.0253 28.168ZM58.9298 24.344L59.3298 24.28H59.4898C59.7031 24.28 59.9378 24.4133 60.1938 24.68C60.6631 24.68 61.3298 25.2667 62.1938 26.44C62.9298 27.8267 63.2978 29.0587 63.2978 30.136C63.2978 31.608 62.7644 32.5893 61.6978 33.08L60.6898 33.288C59.0898 33.288 57.9378 32.088 57.2338 29.688C57.0738 29.0587 56.9938 28.4453 56.9938 27.848V27.688C56.9938 25.8853 57.6391 24.7707 58.9298 24.344ZM58.7858 25.88L58.4338 25.736C58.1031 26.1307 57.9378 26.7013 57.9378 27.448V27.88C57.9378 29.8533 58.6044 31.288 59.9378 32.184L60.3858 32.28H60.9938C61.5484 32.28 61.9484 31.9333 62.1938 31.24L62.2898 30.536V30.04C62.2898 28.44 61.6551 27.0053 60.3858 25.736L59.7298 25.544H59.6978C59.4844 25.544 59.1804 25.656 58.7858 25.88ZM64.6966 24.824C64.9526 24.824 65.118 25.224 65.1926 26.024L65.2566 26.888C65.2566 27.5387 65.1393 29.2347 64.9046 31.976H65.0006V32.024L65.0646 31.976H65.1926L67.0646 32.12H67.1926L67.9926 31.88H68.1046C68.2753 31.9867 68.3926 32.136 68.4566 32.328C68.4566 32.7333 68.0033 32.984 67.0966 33.08L65.4646 32.92H65.1606L64.3926 33.128C64.1046 33.0213 63.9606 32.8507 63.9606 32.616L64.2966 27.128V26.888L64.2006 25.288C64.2006 25.0213 64.366 24.8667 64.6966 24.824ZM69.7435 24.824C69.9995 24.824 70.1648 25.224 70.2395 26.024L70.3035 26.888C70.3035 27.5387 70.1862 29.2347 69.9515 31.976H70.0475V32.024L70.1115 31.976H70.2395L72.1115 32.12H72.2395L73.0395 31.88H73.1515C73.3222 31.9867 73.4395 32.136 73.5035 32.328C73.5035 32.7333 73.0502 32.984 72.1435 33.08L70.5115 32.92H70.2075L69.4395 33.128C69.1515 33.0213 69.0075 32.8507 69.0075 32.616L69.3435 27.128V26.888L69.2475 25.288C69.2475 25.0213 69.4128 24.8667 69.7435 24.824Z" fill="#DBD4D4"/>
<path d="M3.80904 38.6411C4.01252 39.4441 4.82848 39.9302 5.63153 39.7267L18.7179 36.4107C19.521 36.2072 20.007 35.3913 19.8035 34.5882C19.6001 33.7852 18.7841 33.2991 17.9811 33.5026L6.34869 36.4502L3.40116 24.8178C3.19768 24.0147 2.38172 23.5287 1.57867 23.7322C0.775627 23.9357 0.289585 24.7516 0.493069 25.5547L3.80904 38.6411ZM102.634 37.3253C76.8565 5.68144 57.0066 -2.9742 40.8368 1.1651C32.8257 3.21583 25.9778 8.36266 19.9796 14.9086C13.9804 21.4556 8.74185 29.5015 3.97439 37.505L6.55178 39.0403C11.2941 31.0789 16.4063 23.2488 22.1914 16.9354C27.9775 10.621 34.3474 5.92303 41.5807 4.07139C55.8995 0.40595 74.6438 7.71517 100.308 39.22L102.634 37.3253Z" fill="#DBD4D4"/>
</svg>
